<?xml version="1.0" encoding="UTF-8"?>
<svg width="22px" height="22px" viewBox="0 0 22 22" version="1.1" xmlns="http://www.w3.org/2000/svg" xmlns:xlink="http://www.w3.org/1999/xlink">
    <title>ic/yjdf</title>
    <defs>
        <linearGradient x1="50%" y1="-28.2189281%" x2="50%" y2="100%" id="linearGradient-1">
            <stop stop-color="#9AC3FF" offset="0%"></stop>
            <stop stop-color="#2B8CFF" offset="100%"></stop>
        </linearGradient>
    </defs>
    <g id="智慧云助理" stroke="none" stroke-width="1" fill="none" fill-rule="evenodd">
        <g id="1009运营数据" transform="translate(-32.000000, -447.000000)">
            <g id="押金代付" transform="translate(32.000000, 446.000000)">
                <g id="ic/yjdf" transform="translate(0.000000, 1.000000)">
                    <rect id="矩形" fill-opacity="0" fill="#FFFFFF" x="0" y="0" width="22" height="22"></rect>
                    <path d="M3.79047091,3.54489909 L10.7904709,2.04489909 C10.9285892,2.01530231 11.0714108,2.01530231 11.2095291,2.04489909 L18.2095291,3.54489909 C18.6705999,3.64369997 19,4.05116372 19,4.5227015 L19,14.6236048 C19,14.9491382 18.841545,15.254298 18.5752707,15.4415678 L11.5752707,20.3646448 C11.2301591,20.6073607 10.7698409,20.6073607 10.4247293,20.3646448 L3.42472927,15.4415678 C3.15845495,15.254298 3,14.9491382 3,14.6236048 L3,4.5227015 C3,4.05116372 3.32940013,3.64369997 3.79047091,3.54489909 Z" id="矩形" fill="url(#linearGradient-1)"></path>
                    <g id="押" transform="translate(6.815385, 6.800000)" fill="#FFFFFF" fill-rule="nonzero">
                        <path d="M1.32047863,8.49011966 C1.96211966,8.49011966 2.28758974,8.16464957 2.28758974,7.52300855 L2.28758974,4.99364103 C2.60376068,4.8448547 2.91993162,4.69606838 3.23610256,4.53798291 L3.23610256,3.5522735 C2.91993162,3.71965812 2.60376068,3.87774359 2.28758974,4.02652991 L2.28758974,2.52936752 L3.15241026,2.52936752 L3.15241026,1.59015385 L2.28758974,1.59015385 L2.28758974,5.28595211e-14 L1.32977778,5.28595211e-14 L1.32977778,1.59015385 L0.223179487,1.59015385 L0.223179487,2.52936752 L1.32977778,2.52936752 L1.32977778,4.39849573 C0.883418803,4.54728205 0.446358974,4.67747009 0,4.77976068 L0.251076923,5.76547009 C0.61374359,5.6445812 0.976410256,5.52369231 1.32977778,5.39350427 L1.32977778,7.28123077 C1.32977778,7.50441026 1.20888889,7.616 0.985709402,7.616 C0.743931624,7.616 0.502153846,7.59740171 0.251076923,7.56950427 L0.464957265,8.49011966 L1.32047863,8.49011966 Z M5.42140171,1.18099145 L5.42140171,2.54796581 L4.352,2.54796581 L4.352,1.18099145 L5.42140171,1.18099145 Z M4.352,3.44068376 L5.42140171,3.44068376 L5.42140171,4.82625641 L4.352,4.82625641 L4.352,3.44068376 Z M5.42140171,5.70967521 L5.42140171,8.58311111 L6.33271795,8.58311111 L6.33271795,5.70967521 L7.45791453,5.70967521 L7.45791453,6.16533333 L8.36923077,6.16533333 L8.36923077,0.288273504 L3.44068376,0.288273504 L3.44068376,6.16533333 L4.352,6.16533333 L4.352,5.70967521 L5.42140171,5.70967521 Z M6.33271795,4.82625641 L6.33271795,3.44068376 L7.45791453,3.44068376 L7.45791453,4.82625641 L6.33271795,4.82625641 Z M7.45791453,2.54796581 L6.33271795,2.54796581 L6.33271795,1.18099145 L7.45791453,1.18099145 L7.45791453,2.54796581 Z" id="形状"></path>
                    </g>
                </g>
            </g>
        </g>
    </g>
</svg>