<svg width="24" height="24" viewBox="0 0 24 24" fill="none" xmlns="http://www.w3.org/2000/svg">
<path d="M1 12C1 13.4445 1.28452 14.8749 1.83733 16.2095C2.39013 17.5441 3.20038 18.7567 4.22183 19.7782C5.24327 20.7996 6.4559 21.6099 7.79048 22.1627C9.12506 22.7155 10.5555 23 12 23C13.4445 23 14.8749 22.7155 16.2095 22.1627C17.5441 21.6099 18.7567 20.7996 19.7782 19.7782C20.7996 18.7567 21.6099 17.5441 22.1627 16.2095C22.7155 14.8749 23 13.4445 23 12C23 9.08262 21.8411 6.28473 19.7782 4.22183C17.7153 2.15893 14.9174 1 12 1C9.08262 1 6.28473 2.15893 4.22183 4.22183C2.15893 6.28473 1 9.08262 1 12Z" fill="#FFE9DB"/>
<path d="M11.2252 9.74149H5.02253C4.75457 9.74149 4.53809 9.95797 4.53809 10.2259V12.7696C4.53809 13.0375 4.75457 13.254 5.02253 13.254H5.37101V18.9115C5.37101 19.5266 5.86997 20.0256 6.48509 20.0256H11.2239V9.74149H11.2252Z" fill="#FC8B49"/>
<path d="M19.0503 9.74149H12.8477V20.0256H17.564C18.1791 20.0256 18.6781 19.5266 18.6781 18.9115V13.254H19.049C19.317 13.254 19.5335 13.0375 19.5335 12.7696V10.2259C19.5335 9.95797 19.317 9.74149 19.0503 9.74149Z" fill="#FC7C21"/>
<path d="M7.65687 8.72506H16.122C16.8982 8.72506 18.3172 8.07166 18.2155 7.4077C18.1139 6.74374 15.9979 4.21066 14.7703 4.21066C14.1618 4.21066 13.0477 6.05734 12.7217 7.43014H11.3713C11.3713 7.43014 10.4817 4.2001 8.97423 4.2001C7.46679 4.2001 5.31519 6.96946 5.31519 7.7113C5.31519 8.45446 6.81207 8.72506 7.65687 8.72506ZM12.8458 19.3959C16.4071 17.573 18.9033 13.9655 19.158 9.75466C19.1224 9.74674 19.0867 9.74146 19.0485 9.74146H12.8458V19.3959Z" fill="#FC8B49"/>
<path d="M12.7234 7.43014H11.373C11.373 7.43014 10.482 4.2001 8.97461 4.2001C7.46585 4.2001 5.31557 6.96946 5.31557 7.71262C5.31557 8.45578 6.81245 8.72638 7.65725 8.72638H15.3621C15.7859 7.5015 16.0019 6.21433 16.001 4.91818C16.001 4.86142 15.9996 4.80598 15.9983 4.74922C15.5614 4.42846 15.1284 4.21198 14.7707 4.21198C14.1635 4.21066 13.0494 6.05734 12.7234 7.43014ZM4.53809 10.2259V12.7695C4.53809 13.0375 4.75457 13.254 5.02253 13.254H5.37101V16.4959C7.54901 16.3111 9.55541 15.527 11.2252 14.3073V9.74014H5.02253C4.894 9.74074 4.77092 9.79215 4.68016 9.88315C4.5894 9.97416 4.53833 10.0974 4.53809 10.2259ZM14.9555 9.74146H12.8475V12.8765C13.7158 11.9529 14.4278 10.894 14.9555 9.74146Z" fill="#FFA35C"/>
<path d="M11.2542 7.05524C10.9665 6.20516 10.1626 4.19876 8.97461 4.19876C7.46585 4.19876 5.31557 6.96812 5.31557 7.71128C5.31557 8.45444 6.81245 8.72504 7.65725 8.72504H9.95933C10.4412 8.20927 10.8747 7.65032 11.2542 7.05524ZM8.88485 9.74144H5.02253C4.75457 9.74144 4.53809 9.95792 4.53809 10.2259V12.0118C6.15509 11.5683 7.63085 10.7842 8.88485 9.74144Z" fill="#FFB889"/>
</svg>
