<?xml version="1.0" encoding="UTF-8"?>
<svg width="16px" height="16px" viewBox="0 0 16 16" version="1.1" xmlns="http://www.w3.org/2000/svg" xmlns:xlink="http://www.w3.org/1999/xlink">
    <title>1.通用组件/2.Icon图标/1.Outlined线性/Warning-Circle</title>
    <g id="智慧云助理" stroke="none" stroke-width="1" fill="none" fill-rule="evenodd">
        <g id="1006未代付" transform="translate(-16.000000, -196.000000)">
            <g id="1.通用组件/2.Icon图标/1.Outlined线性/Warning-Circle" transform="translate(24.000000, 204.000000) rotate(180.000000) translate(-24.000000, -204.000000) translate(16.000000, 196.000000)">
                <rect id="_mockplus_fix_" x="0" y="0" width="16" height="16"></rect>
                <rect id="_mockplus_fix_" x="0" y="0" width="16" height="16"></rect>
                <rect id="矩形" fill="#000000" fill-rule="nonzero" opacity="0" x="0" y="0" width="16" height="16"></rect>
                <path d="M8,1 C11.865625,1 15,4.134375 15,8 C15,11.865625 11.865625,15 8,15 C4.134375,15 1,11.865625 1,8 C1,4.134375 4.134375,1 8,1 Z M8,2.1875 C4.790625,2.1875 2.1875,4.790625 2.1875,8 C2.1875,11.209375 4.790625,13.8125 8,13.8125 C11.209375,13.8125 13.8125,11.209375 13.8125,8 C13.8125,4.790625 11.209375,2.1875 8,2.1875 Z M8,10 C8.41421356,10 8.75,10.3357864 8.75,10.75 C8.75,11.1642136 8.41421356,11.5 8,11.5 C7.58578644,11.5 7.25,11.1642136 7.25,10.75 C7.25,10.3357864 7.58578644,10 8,10 Z M8.375,4.5 C8.44375,4.5 8.5,4.55625 8.5,4.625 L8.5,8.875 C8.5,8.94375 8.44375,9 8.375,9 L7.625,9 C7.55625,9 7.5,8.94375 7.5,8.875 L7.5,4.625 C7.5,4.55625 7.55625,4.5 7.625,4.5 Z" id="颜色" fill-opacity="0.65" fill="#000000"></path>
            </g>
        </g>
    </g>
</svg>