<?xml version="1.0" encoding="UTF-8"?>
<svg width="22px" height="22px" viewBox="0 0 22 22" version="1.1" xmlns="http://www.w3.org/2000/svg" xmlns:xlink="http://www.w3.org/1999/xlink">
    <title>ic/zjdf</title>
    <defs>
        <linearGradient x1="50%" y1="0%" x2="50%" y2="100%" id="linearGradient-1">
            <stop stop-color="#9AC3FF" offset="0%"></stop>
            <stop stop-color="#2B8CFF" offset="100%"></stop>
        </linearGradient>
    </defs>
    <g id="智慧云助理" stroke="none" stroke-width="1" fill="none" fill-rule="evenodd">
        <g id="1009运营数据" transform="translate(-31.000000, -305.000000)">
            <g id="编组-7" transform="translate(31.000000, 304.000000)">
                <g id="编组" transform="translate(0.000000, 1.000000)">
                    <rect id="矩形" fill-opacity="0" fill="#FFFFFF" x="0" y="0" width="22" height="22"></rect>
                    <path d="M17.5965377,13.7490042 L15.6481467,10.1596956 C15.2860395,9.46788024 14.849605,9.28110914 14.28548,9.60001763 C13.7207198,9.91765554 13.5612655,11.0598815 13.9233728,11.740262 L14.7854421,14.1657452 L12.0702731,16.8771025 C11.4743844,17.4259808 10.5163884,17.601317 9.62191999,16.8110338 L6.8533878,13.6829355 L6.8533878,18.1940293 C6.8533878,18.5237375 6.80065992,18.7867417 7.12020366,18.7867417 L14.0618629,18.7867417 C14.4239701,18.7867417 14.7003151,18.4246345 14.7003151,18.4246345 L17.3195575,15.4280383 L17.3195575,15.4172386 C17.6283016,15.022097 17.8836824,14.2864475 17.5965377,13.7490042 Z M14.5408609,21.1798259 L14.5408609,19.5770249 C14.5409207,19.4346974 14.4277477,19.3181461 14.28548,19.3140207 L7.10940398,19.3140207 C7.04033092,19.3141705 6.97423404,19.3421559 6.92605386,19.3916512 C6.87787369,19.4411464 6.8516779,19.5079728 6.8533878,19.5770249 L6.8533878,21.1798259 C6.8533878,21.3227629 6.97091382,21.4434653 7.10940398,21.4434653 L14.28548,21.4434653 C14.4233349,21.4434653 14.5510253,21.3227629 14.5408609,21.1798259 L14.5408609,21.1798259 Z" id="形状" fill="#2B8CFF" fill-rule="nonzero"></path>
                    <path d="M19.6275147,6.19430378 C19.8689487,6.43555021 20.0031696,6.76378823 20.0000549,7.10507964 C19.9967167,7.44637104 19.8563141,7.77201283 19.6103622,8.00865162 L16.5343565,10.9690371 C16.2688112,9.6711685 15.8469881,8.98380004 15.2682517,8.90693165 C14.3998297,8.7919467 13.633687,8.77733537 13.3370131,10.1292024 C13.1388071,11.0312941 13.4437395,12.1671673 14.2511751,13.5387279 L12.0086513,15.6846897 C11.5094214,16.1626915 10.7196664,16.1539415 10.2311495,15.6649962 L4.37200033,9.80521171 C3.87599989,9.30906147 3.87599989,8.50480186 4.37200033,8.00865162 L12.0080161,0.372635854 C12.2463313,0.134055416 12.5697152,0 12.9069314,0 C13.2441476,0 13.5675316,0.134055416 13.8058467,0.372635854 L19.6275147,6.19430378 Z" id="路径" fill="url(#linearGradient-1)" fill-rule="nonzero"></path>
                    <path d="M12.4533444,5.02920786 L11.9197127,7.23488563 L14.057416,6.61676221 C14.4658983,6.50050673 14.65394,6.4357086 14.8457933,6.32453531 L15.7898132,7.24695585 C15.6284532,7.26791995 15.1068917,7.374011 14.8623105,7.43436223 L12.9526713,7.92098355 L13.2569684,8.21575153 C13.4977379,8.45842692 13.6571922,8.58929373 13.8604805,8.73540717 L13.258239,9.37131832 C13.1057728,9.15977146 12.9710943,9.00794054 12.73096,8.76526516 L12.0912372,8.13697731 L11.637015,8.24942114 L11.4864546,8.41141648 L12.2945255,9.19407636 C12.535295,9.43675174 12.6845848,9.55491305 12.8980376,9.71373199 L12.2970666,10.3375729 C12.1446004,10.126026 12.0099219,9.97419511 11.7697876,9.73151973 L10.9604462,8.94885985 L10.6085034,9.32621371 C10.3080179,9.63876943 10.1536459,9.83506967 9.97322751,10.0758392 L9.16515663,9.29317939 C9.39766759,9.10386717 9.63271967,8.89104977 9.8842889,8.62105751 L10.2362317,8.24370366 L9.41863169,7.43690335 C9.22924686,7.24564528 9.0234787,7.07133753 8.80368468,6.91597714 L9.40592619,6.28006602 C9.56855682,6.50431839 9.6816359,6.64217326 9.93320513,6.88611919 L10.7514404,7.69291949 L10.9134358,7.53219473 L10.999198,7.07289029 L10.3702749,6.45730799 C10.1174352,6.21399735 9.97005114,6.08440107 9.75469263,5.93638178 L10.3569341,5.30110591 C10.5094003,5.51265277 10.6326438,5.66321315 10.8962833,5.90842965 L11.2005805,6.20319763 L11.6008042,4.2313014 C11.6821195,3.81837211 11.747553,3.46198236 11.7640702,3.2764818 L12.6966551,4.19826705 C12.6077165,4.4358602 12.5460947,4.61754911 12.4533444,5.02920786 L12.4533444,5.02920786 Z" id="路径" fill="#FFFFFF" fill-rule="nonzero"></path>
                </g>
            </g>
        </g>
    </g>
</svg>