<svg width="24" height="24" viewBox="0 0 24 24" fill="none" xmlns="http://www.w3.org/2000/svg">
<path fill-rule="evenodd" clip-rule="evenodd" d="M22 5.84529V15.6923C22 15.6923 16.6075 14.0432 15.4225 13.6145C16.135 12.3893 16.7037 10.9868 17.0788 9.46048H13V8.07785H17.9998V7.23034H13V4.92266H11.0775C10.7325 4.92266 10.69 5.23526 10.69 5.23526V7.23034H6V8.07785H10.69V9.46048H6.84503V10.2305H14.616C14.3297 11.2043 13.9536 12.1196 13.4999 12.9507C13.2892 12.8811 13.0896 12.8141 12.8977 12.7496C11.4939 12.2783 10.5052 11.9464 8.61483 11.7693C4.5374 11.3856 3.59863 13.6232 3.45239 14.9921C3.23114 17.0772 5.07743 18.7812 7.84366 18.7812C10.6099 18.7812 12.445 17.5073 14.1974 15.3845C16.4286 16.4493 20.6481 18.2748 21.8355 18.7885L21.9399 18.8337C21.6187 20.6324 20.0449 22 18.1537 22H5.84503C3.7212 22 2 20.2774 2 18.1548V5.84529C2 3.72258 3.72257 2 5.84503 2H18.1537C20.2775 2 22 3.72258 22 5.84529ZM4.30752 14.8445C4.15255 15.616 4.61504 17.4609 7.53751 17.4609C9.33751 17.4609 11.07 16.3672 12.48 14.5307C10.4725 13.5532 8.8 13.0758 6.93256 13.0758C5.30752 13.0758 4.46123 14.077 4.30752 14.8445Z" fill="#226BF3"/>
</svg>
