<svg width="24" height="24" viewBox="0 0 24 24" fill="none" xmlns="http://www.w3.org/2000/svg">
<path d="M1 12C1 13.4445 1.28452 14.8749 1.83733 16.2095C2.39013 17.5441 3.20038 18.7567 4.22183 19.7782C5.24327 20.7996 6.4559 21.6099 7.79048 22.1627C9.12506 22.7155 10.5555 23 12 23C13.4445 23 14.8749 22.7155 16.2095 22.1627C17.5441 21.6099 18.7567 20.7996 19.7782 19.7782C20.7996 18.7567 21.6099 17.5441 22.1627 16.2095C22.7155 14.8749 23 13.4445 23 12C23 9.08262 21.8411 6.28473 19.7782 4.22183C17.7153 2.15893 14.9174 1 12 1C9.08262 1 6.28473 2.15893 4.22183 4.22183C2.15893 6.28473 1 9.08262 1 12Z" fill="#E3FFF3"/>
<path d="M15.8373 9.15143C14.0064 9.17519 12.4092 9.67547 11.1618 11.0087C9.88933 12.3683 9.54877 13.9338 10.2008 15.8399C9.36661 15.7422 8.61949 15.6406 7.87105 15.5746C7.65193 15.5548 7.39453 15.5772 7.20709 15.6788C6.65269 15.9785 6.13261 16.3402 5.58349 16.6477C5.45413 16.7203 5.22973 16.7322 5.10565 16.6662C5.02381 16.6226 4.99741 16.3784 5.02777 16.2425C5.12941 15.791 5.25349 15.3422 5.39869 14.9027C5.49505 14.6083 5.43433 14.4314 5.18617 14.2242C3.46357 12.7894 2.81017 10.9717 3.45565 8.81087C3.90181 7.31795 4.96177 6.28439 6.33985 5.57423C8.89273 4.25819 12.0964 4.63439 14.2308 6.50747C15.0255 7.20443 15.5693 8.05847 15.8373 9.15143ZM11.74 9.30323C12.1624 9.29267 12.4911 8.96795 12.4818 8.56799C12.4739 8.16803 12.1373 7.86576 11.7043 7.87236C11.2872 7.87896 10.9361 8.21687 10.9453 8.60363C10.9546 8.97851 11.3361 9.31379 11.74 9.30323ZM7.60969 9.30323C8.02945 9.29135 8.36341 8.96003 8.35153 8.56535C8.33965 8.16275 8.00305 7.86444 7.57141 7.87236C7.14901 7.87896 6.81505 8.20763 6.82561 8.60495C6.83617 8.99699 7.19389 9.31511 7.60969 9.30323Z" fill="#1DCE75"/>
<path d="M20.5485 13.976C20.5366 15.4426 19.9848 16.422 19.0648 17.2061C18.8325 17.4041 18.7678 17.5862 18.8285 17.8634C18.8839 18.1129 18.9222 18.3677 18.9341 18.6224C18.9394 18.7492 18.9024 18.9472 18.8206 18.9894C18.7097 19.0462 18.5183 19.025 18.3929 18.967C18.1619 18.86 17.9283 18.7307 17.7408 18.5617C17.3897 18.2449 17.0293 18.2317 16.57 18.307C15.0559 18.5538 13.6198 18.2964 12.3895 17.3447C10.102 15.5732 10.1601 12.6494 12.4885 10.9308C14.7259 9.27949 18.1157 9.74017 19.8 11.938C20.3082 12.5993 20.5775 13.3583 20.5485 13.976ZM14.0871 13.5008C14.4157 13.5008 14.6863 13.2514 14.6797 12.9544C14.6745 12.6613 14.3893 12.3973 14.0831 12.4C13.7742 12.4026 13.4931 12.6666 13.4904 12.957C13.4865 13.2527 13.7597 13.5008 14.0871 13.5008ZM17.5534 13.0098C17.5639 12.6732 17.2986 12.4039 16.9884 12.4C16.6769 12.396 16.3971 12.6574 16.3957 12.9544C16.3944 13.2527 16.6677 13.5114 16.9911 13.4995C17.3237 13.4876 17.5177 13.3121 17.5534 13.0098Z" fill="#05C46D"/>
<path d="M19.8277 11.9749C19.8184 11.963 19.8105 11.9498 19.8013 11.938C18.1169 9.73884 14.7272 9.27948 12.4898 10.9308C10.1613 12.6494 10.1019 15.5746 12.3908 17.3447C12.5188 17.4437 12.6495 17.5334 12.7828 17.6179C15.8531 16.8206 18.4047 14.7364 19.8277 11.9749ZM14.087 13.5008C13.7596 13.5008 13.4864 13.2527 13.4903 12.957C13.4943 12.6666 13.7741 12.4026 14.083 12.4C14.3893 12.3973 14.6744 12.6613 14.6797 12.9544C14.6863 13.2527 14.4157 13.5022 14.087 13.5008ZM16.991 13.4995C16.6676 13.5114 16.3943 13.2514 16.3957 12.9544C16.397 12.6587 16.6781 12.396 16.9883 12.4C17.2985 12.4039 17.5639 12.6732 17.5533 13.0098C17.5177 13.3121 17.3236 13.4876 16.991 13.4995Z" fill="#1DCE75"/>
<path d="M14.2322 6.50749C12.099 4.63309 8.89408 4.25821 6.3412 5.57425C4.96312 6.28441 3.90316 7.31797 3.457 8.81089C2.85904 10.812 3.37516 12.5188 4.8232 13.8995C5.37892 13.9813 5.94784 14.0236 6.526 14.0236C7.70344 14.0236 8.83864 13.848 9.90916 13.5233C10.024 12.6032 10.4451 11.773 11.1618 11.0074C12.4092 9.67417 14.0051 9.17521 15.8373 9.15013C15.5693 8.05849 15.0255 7.20445 14.2322 6.50749ZM7.60972 9.30325C7.1926 9.31381 6.8362 8.99701 6.82564 8.60497C6.81508 8.20765 7.14904 7.87897 7.57144 7.87237C8.0044 7.86445 8.33967 8.16277 8.35155 8.56537C8.36343 8.96005 8.02948 9.29269 7.60972 9.30325ZM11.74 9.30325C11.3348 9.31381 10.9546 8.97721 10.9454 8.60233C10.9361 8.21557 11.2872 7.87765 11.7044 7.87105C12.136 7.86445 12.4726 8.16673 12.4818 8.56669C12.4911 8.96797 12.1624 9.29269 11.74 9.30325Z" fill="#3CD38E"/>
<path d="M12.4898 10.9295C11.5777 11.6027 11.0154 12.462 10.8042 13.3636C12.6878 12.6666 14.3299 11.472 15.5707 9.93817C14.4817 9.94213 13.3914 10.2642 12.4898 10.9295Z" fill="#3CD38E"/>
<path d="M6.82555 8.60627C6.81499 8.20895 7.14895 7.88027 7.57135 7.87367C8.00431 7.86575 8.33959 8.16407 8.35147 8.56667C8.35543 8.70395 8.31715 8.83463 8.24719 8.94551C10.0054 8.17859 11.5366 6.98927 12.7141 5.50427C10.742 4.54991 8.34091 4.54199 6.33979 5.57423C4.96303 6.28439 3.90307 7.31795 3.45691 8.81087C3.34471 9.18575 3.27211 9.55139 3.23779 9.90515C3.35923 9.90911 3.48067 9.91175 3.60343 9.91175C4.93003 9.91175 6.20515 9.68867 7.39315 9.27947C7.07635 9.19763 6.83479 8.92703 6.82555 8.60627Z" fill="#48E1AA"/>
</svg>
