<svg width="24" height="24" viewBox="0 0 24 24" fill="none" xmlns="http://www.w3.org/2000/svg">
<path d="M1 12C1 14.9174 2.15893 17.7153 4.22183 19.7782C6.28473 21.8411 9.08262 23 12 23C14.9174 23 17.7153 21.8411 19.7782 19.7782C21.8411 17.7153 23 14.9174 23 12C23 9.08262 21.8411 6.28473 19.7782 4.22183C17.7153 2.15893 14.9174 1 12 1C9.08262 1 6.28473 2.15893 4.22183 4.22183C2.15893 6.28473 1 9.08262 1 12Z" fill="#226BF3" fill-opacity="0.15"/>
<path d="M19.2976 14.7339L14.6691 13.184H14.6693C14.6693 13.184 15.0789 12.5989 15.4884 11.4285C15.9274 10.2582 15.9858 9.61448 15.9858 9.61448L12.6504 9.58525V8.44418L16.688 8.41488V7.59567H12.6503V5.75238H10.6608V7.56644H6.82795V8.38565L10.6023 8.35636V9.58525H7.58868V10.2289H13.8207C13.8207 10.2289 13.7621 10.7556 13.5281 11.3993C13.2647 12.043 13.0307 12.5989 13.0307 12.5989C13.0307 12.5989 10.1049 11.5749 8.55421 11.5749C7.00349 11.5749 5.13096 12.2185 4.95539 14.0033C4.77984 15.7881 5.83317 16.7829 7.32532 17.134C8.78821 17.4851 10.1633 17.134 11.363 16.5489C12.5626 15.9637 13.7328 14.647 13.7328 14.647L14.4862 15.0131C15.7045 14.5533 17.4357 14.4236 19.2976 14.7339ZM8.29089 16.1392C6.09653 16.1392 5.65762 15.0566 5.65762 14.2957C5.65762 13.535 6.12578 12.6866 7.96903 12.5696C9.81239 12.4526 12.3286 13.8862 12.3286 13.8862C12.3286 13.8862 10.4853 16.1392 8.29089 16.1392Z" fill="#4A89FF"/>
<path d="M20.6087 16.5196C20.9013 15.9637 21.1354 15.3492 21.1354 15.3492L19.2977 14.7339C17.4357 14.4237 15.7046 14.5533 14.4863 15.0131L19.9357 17.6607C19.9357 17.6607 20.316 17.0756 20.6087 16.5196Z" fill="#0053ED"/>
</svg>
