<?xml version="1.0" encoding="UTF-8"?>
<svg width="14px" height="14px" viewBox="0 0 14 14" version="1.1" xmlns="http://www.w3.org/2000/svg" xmlns:xlink="http://www.w3.org/1999/xlink">
    <title>ic/jd</title>
    <defs>
        <linearGradient x1="50%" y1="0%" x2="50%" y2="100%" id="linearGradient-1">
            <stop stop-color="#FEE1BA" offset="0%"></stop>
            <stop stop-color="#FFAB5D" offset="100%"></stop>
        </linearGradient>
    </defs>
    <g id="智慧云助理" stroke="none" stroke-width="1" fill="none" fill-rule="evenodd">
        <g id="1003双月卡" transform="translate(-29.000000, -298.000000)">
            <g id="底部弹窗" transform="translate(0.000000, 139.000000)">
                <g id="滑动选择" transform="translate(0.000000, 114.000000)">
                    <g id="1备份-3" transform="translate(0.000000, 40.000000)">
                        <g id="编组-3" transform="translate(29.000000, 0.000000)">
                            <g id="ic/jd" transform="translate(0.000000, 5.000000)">
                                <rect id="_mockplus_fix_" x="0" y="0" width="14" height="13.9998265"></rect>
                                <path d="M6.59292759,5.45724203 C6.49277432,5.66293061 6.26446794,5.99138619 5.92362375,6.27568872 C5.62208702,6.52660724 5.28878124,6.68652742 4.91832182,6.73498808 C4.56003235,6.78615915 4.31003998,7.11667381 4.35832504,7.47535926 C4.40301709,7.83773731 4.72770754,8.09404036 5.08201319,8.04773351 C5.70931729,7.96588883 6.26392949,7.69989367 6.74261905,7.30036245 C7.24877,6.87821626 7.57722965,6.40545559 7.75222863,6.0457698 C7.91191546,5.72009239 7.78262618,5.3264939 7.4609226,5.15893973 C7.30663552,5.08109025 7.1274439,5.0688614 6.96401071,5.12502819 C6.80057752,5.18119499 6.66676107,5.30099477 6.59292759,5.45724203 M5.90423925,2.13768684 C7.58638343,-1.48232444 12.5617395,-0.13942572 13.656964,3.44074012 C14.2934219,5.52024087 13.9477315,6.75329544 13.4022731,8.36811231 C12.6850465,10.492843 11.1482861,12.3558862 9.28091217,13.2249473 C5.40239598,15.0303761 1.31765018,13.5754794 0.175579802,9.94900672 C-0.361801738,8.24211459 0.353271096,5.97415572 2.0612613,5.24670738 C3.15271658,4.78148505 4.33570978,4.67002553 5.07985935,3.61735231 C5.38462684,3.18766779 5.67808669,2.62444723 5.90423925,2.13768684 Z" id="形状" fill="url(#linearGradient-1)" fill-rule="nonzero"></path>
                            </g>
                        </g>
                    </g>
                </g>
            </g>
        </g>
    </g>
</svg>