<?xml version="1.0" encoding="UTF-8"?>
<svg width="10px" height="13px" viewBox="0 0 10 13" version="1.1" xmlns="http://www.w3.org/2000/svg" xmlns:xlink="http://www.w3.org/1999/xlink">
    <title>ic/dc</title>
    <g id="智慧云助理" stroke="none" stroke-width="1" fill="none" fill-rule="evenodd">
        <g id="1004已代付" transform="translate(-96.000000, -325.000000)">
            <g id="企业渠道/已代付-电池未归还" transform="translate(10.000000, 194.000000)">
                <g id="ic/dc" transform="translate(86.000000, 131.000000)">
                    <rect id="_mockplus_fix_" x="0" y="0" width="9.02912937" height="12.6819637"></rect>
                    <g id="形状-2" transform="translate(0.000000, 0.977380)" fill="#FA5050" fill-rule="nonzero">
                        <path d="M9.02912937,11.7045837 L0,11.7045837 L0,0 L9.02771901,0 L9.02771901,11.7045837 L9.02912937,11.7045837 Z M1.02533225,10.7159208 L8.00379713,10.7159208 L8.00379713,0.98866287 L1.02533225,0.98866287 L1.02533225,10.7159208 Z" id="形状"></path>
                    </g>
                    <path d="M2.70930296,0 L6.29726065,0 L6.29726065,0.987252509 L2.70930296,0.987252509 L2.70930296,0 Z M5.09140222,9.80059669 L3.95324112,9.24068348 L4.85023054,7.41990778 L2.1366965,7.41990778 L3.94618931,3.81925685 L5.08011934,4.39045294 L4.19582316,6.15058313 L6.88961215,6.15058313 L5.09140222,9.80059669 Z" id="形状" fill="#FA5050" fill-rule="nonzero"></path>
                </g>
            </g>
        </g>
    </g>
</svg>