<svg width="24" height="24" viewBox="0 0 24 24" fill="none" xmlns="http://www.w3.org/2000/svg">
<mask id="mask0_17_1129" style="mask-type:luminance" maskUnits="userSpaceOnUse" x="0" y="0" width="24" height="24">
<rect width="24" height="24" fill="white"/>
</mask>
<g mask="url(#mask0_17_1129)">
<path fill-rule="evenodd" clip-rule="evenodd" d="M5.63617 5.38605C5.92907 5.09316 6.40394 5.09316 6.69683 5.38605L12.0001 10.6894L17.3034 5.38605C17.5963 5.09316 18.0712 5.09316 18.3641 5.38605C18.657 5.67894 18.657 6.15382 18.3641 6.44671L13.0608 11.75L18.3641 17.0533C18.657 17.3462 18.657 17.8211 18.3641 18.114C18.0712 18.4069 17.5963 18.4069 17.3034 18.114L12.0001 12.8107L6.69683 18.114C6.40394 18.4069 5.92907 18.4069 5.63617 18.114C5.34328 17.8211 5.34328 17.3462 5.63617 17.0533L10.9395 11.75L5.63617 6.44671C5.34328 6.15382 5.34328 5.67894 5.63617 5.38605Z" fill="#333333"/>
</g>
</svg>
