<svg width="24" height="24" viewBox="0 0 24 24" fill="none" xmlns="http://www.w3.org/2000/svg">
<path d="M9.0058 14.6597C8.90398 14.7134 8.79119 14.7413 8.67679 14.7411C8.4105 14.7416 8.16512 14.5925 8.03663 14.3522L7.98818 14.2444L5.98354 9.71616C5.96151 9.66567 5.94938 9.61119 5.94783 9.55585C5.94922 9.34743 6.11284 9.17883 6.31509 9.1774C6.39436 9.1772 6.47147 9.20399 6.53443 9.25361L8.90633 10.9882C9.08547 11.1082 9.29455 11.1721 9.50823 11.1721C9.63688 11.1713 9.76447 11.1482 9.88569 11.1038L21.0056 6.00263C19.0035 3.57687 15.7211 2 12.0077 2C5.92743 2 1 6.23127 1 11.4612C1 14.2996 2.4818 16.8647 4.80269 18.5966C4.99651 18.7376 5.11162 18.967 5.11129 19.2116C5.10873 19.2935 5.09587 19.3748 5.07304 19.4534C4.88685 20.1656 4.591 21.293 4.56295 21.3587C4.53326 21.4436 4.51357 21.5318 4.50429 21.6216C4.50429 21.8306 4.66872 22 4.87155 22C4.94684 21.9975 5.02004 21.9739 5.08324 21.9317L7.49339 20.4967C7.66946 20.386 7.87119 20.3261 8.07744 20.3233C8.18728 20.3223 8.29658 20.3392 8.40134 20.3732C9.56971 20.7194 10.7792 20.8963 11.9949 20.8988C18.0726 20.8988 23 16.6675 23 11.4376C22.9953 9.89104 22.5655 8.37752 21.7605 7.07227L9.08741 14.615L9.0058 14.6597Z" fill="#09BB07"/>
</svg>
