<?xml version="1.0" encoding="UTF-8"?>
<svg width="284px" height="167px" viewBox="0 0 284 167" version="1.1" xmlns="http://www.w3.org/2000/svg" xmlns:xlink="http://www.w3.org/1999/xlink">
    <title>支付成功</title>
    <defs>
        <linearGradient x1="91.9584386%" y1="23.2757721%" x2="10.9223625%" y2="82.3381391%" id="linearGradient-1">
            <stop stop-color="#F6A10E" offset="0%"></stop>
            <stop stop-color="#F7B300" offset="100%"></stop>
        </linearGradient>
        <linearGradient x1="50%" y1="0%" x2="7.81011564%" y2="80.925331%" id="linearGradient-2">
            <stop stop-color="#FFC61B" offset="0%"></stop>
            <stop stop-color="#FEDD11" offset="100%"></stop>
        </linearGradient>
        <linearGradient x1="90.9345568%" y1="43.5718247%" x2="26.7269203%" y2="18.0755697%" id="linearGradient-3">
            <stop stop-color="#FDE204" offset="0%"></stop>
            <stop stop-color="#FFB90A" offset="100%"></stop>
        </linearGradient>
        <circle id="path-4" cx="42" cy="42" r="32"></circle>
        <filter x="-8.6%" y="-8.6%" width="117.2%" height="117.2%" filterUnits="objectBoundingBox" id="filter-5">
            <feGaussianBlur stdDeviation="1.5" in="SourceAlpha" result="shadowBlurInner1"></feGaussianBlur>
            <feOffset dx="8" dy="1" in="shadowBlurInner1" result="shadowOffsetInner1"></feOffset>
            <feComposite in="shadowOffsetInner1" in2="SourceAlpha" operator="arithmetic" k2="-1" k3="1" result="shadowInnerInner1"></feComposite>
            <feColorMatrix values="0 0 0 0 1   0 0 0 0 0.812126794   0 0 0 0 0.36784013  0 0 0 0.5 0" type="matrix" in="shadowInnerInner1"></feColorMatrix>
        </filter>
        <linearGradient x1="23.3588449%" y1="29.4091886%" x2="80.2836662%" y2="87.7550124%" id="linearGradient-6">
            <stop stop-color="#FECE01" offset="0%"></stop>
            <stop stop-color="#F9AF04" offset="100%"></stop>
        </linearGradient>
        <linearGradient x1="50%" y1="0%" x2="50%" y2="100%" id="linearGradient-7">
            <stop stop-color="#FEDC11" offset="0%"></stop>
            <stop stop-color="#FFB90A" offset="100%"></stop>
        </linearGradient>
    </defs>
    <g id="智慧云助理" stroke="none" stroke-width="1" fill="none" fill-rule="evenodd">
        <g id="1012支付完成" transform="translate(-46.000000, -260.000000)">
            <g id="支付成功" transform="translate(46.000000, 260.000000)">
                <rect id="矩形" fill-opacity="0" fill="#FFFFFF" x="0" y="0" width="284" height="167"></rect>
                <g id="III" transform="translate(169.000000, 32.000000)" stroke-width="3">
                    <line x1="0.942857143" y1="0" x2="0" y2="11.3142857" id="路径-17" stroke="#F6C60C"></line>
                    <line x1="14.4571429" y1="7.22857143" x2="7.54285714" y2="15.4" id="路径-18" stroke="#FAB206"></line>
                    <line x1="24.5142857" y1="20.1142857" x2="13.2" y2="22" id="路径-19" stroke="#FB9E05"></line>
                </g>
                <g id="圆" transform="translate(100.000000, 41.000000)">
                    <circle id="椭圆形" stroke="url(#linearGradient-1)" stroke-width="1.5" cx="42" cy="42" r="42"></circle>
                    <circle id="椭圆形" stroke="url(#linearGradient-2)" stroke-width="10.5" cx="42" cy="42" r="36.75"></circle>
                    <g id="椭圆形">
                        <use fill="black" fill-opacity="1" filter="url(#filter-5)" xlink:href="#path-4"></use>
                        <circle stroke="url(#linearGradient-3)" stroke-width="4" stroke-linejoin="square" cx="42" cy="42" r="30"></circle>
                    </g>
                    <circle id="椭圆形" fill="url(#linearGradient-6)" cx="42" cy="42" r="28"></circle>
                    <path d="M51.7567568,33 L47,37.7567568 C50.3333333,37.9189189 52.6666667,38.8333333 54,40.5" id="路径-14" stroke="#F49A0A" stroke-width="2" stroke-linecap="round" stroke-linejoin="round"></path>
                    <ellipse id="椭圆形" fill="#F49A0A" cx="34" cy="37.5" rx="4" ry="5.5"></ellipse>
                    <path d="M34.2308803,49.1718692 C34.7555834,49.5790271 35.3111195,49.9483429 35.8933933,50.2757215 C37.8463212,51.3737389 40.100025,52 42.5,52 C44.899975,52 47.1536788,51.3737389 49.1066067,50.2757215 C49.6888805,49.9483429 50.2444166,49.5790271 50.7691197,49.1718692" id="路径" stroke="#F49A0A" stroke-width="3" stroke-linecap="round"></path>
                </g>
                <g id="小金豆" transform="translate(207.240001, 130.905985) rotate(40.000000) translate(-207.240001, -130.905985) translate(200.240001, 123.906159)" fill="url(#linearGradient-7)" fill-rule="nonzero">
                    <path d="M6.59292759,5.45724203 C6.49277432,5.66293061 6.26446794,5.99138619 5.92362375,6.27568872 C5.62208702,6.52660724 5.28878124,6.68652742 4.91832182,6.73498808 C4.56003235,6.78615915 4.31003998,7.11667381 4.35832504,7.47535926 C4.40301709,7.83773731 4.72770754,8.09404036 5.08201319,8.04773351 C5.70931729,7.96588883 6.26392949,7.69989367 6.74261905,7.30036245 C7.24877,6.87821626 7.57722965,6.40545559 7.75222863,6.0457698 C7.91191546,5.72009239 7.78262618,5.3264939 7.4609226,5.15893973 C7.30663552,5.08109025 7.1274439,5.0688614 6.96401071,5.12502819 C6.80057752,5.18119499 6.66676107,5.30099477 6.59292759,5.45724203 M5.90423925,2.13768684 C7.58638343,-1.48232444 12.5617395,-0.13942572 13.656964,3.44074012 C14.2934219,5.52024087 13.9477315,6.75329544 13.4022731,8.36811231 C12.6850465,10.492843 11.1482861,12.3558862 9.28091217,13.2249473 C5.40239598,15.0303761 1.31765018,13.5754794 0.175579802,9.94900672 C-0.361801738,8.24211459 0.353271096,5.97415572 2.0612613,5.24670738 C3.15271658,4.78148505 4.33570978,4.67002553 5.07985935,3.61735231 C5.38462684,3.18766779 5.67808669,2.62444723 5.90423925,2.13768684 Z" id="形状"></path>
                </g>
                <g id="小金豆" transform="translate(80.239860, 39.906064) rotate(-98.000000) translate(-80.239860, -39.906064) translate(73.239860, 32.906238)" fill="url(#linearGradient-7)" fill-rule="nonzero">
                    <path d="M6.59292759,5.45724203 C6.49277432,5.66293061 6.26446794,5.99138619 5.92362375,6.27568872 C5.62208702,6.52660724 5.28878124,6.68652742 4.91832182,6.73498808 C4.56003235,6.78615915 4.31003998,7.11667381 4.35832504,7.47535926 C4.40301709,7.83773731 4.72770754,8.09404036 5.08201319,8.04773351 C5.70931729,7.96588883 6.26392949,7.69989367 6.74261905,7.30036245 C7.24877,6.87821626 7.57722965,6.40545559 7.75222863,6.0457698 C7.91191546,5.72009239 7.78262618,5.3264939 7.4609226,5.15893973 C7.30663552,5.08109025 7.1274439,5.0688614 6.96401071,5.12502819 C6.80057752,5.18119499 6.66676107,5.30099477 6.59292759,5.45724203 M5.90423925,2.13768684 C7.58638343,-1.48232444 12.5617395,-0.13942572 13.656964,3.44074012 C14.2934219,5.52024087 13.9477315,6.75329544 13.4022731,8.36811231 C12.6850465,10.492843 11.1482861,12.3558862 9.28091217,13.2249473 C5.40239598,15.0303761 1.31765018,13.5754794 0.175579802,9.94900672 C-0.361801738,8.24211459 0.353271096,5.97415572 2.0612613,5.24670738 C3.15271658,4.78148505 4.33570978,4.67002553 5.07985935,3.61735231 C5.38462684,3.18766779 5.67808669,2.62444723 5.90423925,2.13768684 Z" id="形状"></path>
                </g>
                <g id="小金豆" transform="translate(67.239859, 140.906049) rotate(-88.000000) translate(-67.239859, -140.906049) translate(60.239859, 133.906222)" fill="url(#linearGradient-7)" fill-rule="nonzero">
                    <path d="M6.59292759,5.45724203 C6.49277432,5.66293061 6.26446794,5.99138619 5.92362375,6.27568872 C5.62208702,6.52660724 5.28878124,6.68652742 4.91832182,6.73498808 C4.56003235,6.78615915 4.31003998,7.11667381 4.35832504,7.47535926 C4.40301709,7.83773731 4.72770754,8.09404036 5.08201319,8.04773351 C5.70931729,7.96588883 6.26392949,7.69989367 6.74261905,7.30036245 C7.24877,6.87821626 7.57722965,6.40545559 7.75222863,6.0457698 C7.91191546,5.72009239 7.78262618,5.3264939 7.4609226,5.15893973 C7.30663552,5.08109025 7.1274439,5.0688614 6.96401071,5.12502819 C6.80057752,5.18119499 6.66676107,5.30099477 6.59292759,5.45724203 M5.90423925,2.13768684 C7.58638343,-1.48232444 12.5617395,-0.13942572 13.656964,3.44074012 C14.2934219,5.52024087 13.9477315,6.75329544 13.4022731,8.36811231 C12.6850465,10.492843 11.1482861,12.3558862 9.28091217,13.2249473 C5.40239598,15.0303761 1.31765018,13.5754794 0.175579802,9.94900672 C-0.361801738,8.24211459 0.353271096,5.97415572 2.0612613,5.24670738 C3.15271658,4.78148505 4.33570978,4.67002553 5.07985935,3.61735231 C5.38462684,3.18766779 5.67808669,2.62444723 5.90423925,2.13768684 Z" id="形状"></path>
                </g>
                <ellipse id="阴影" fill="#ECF5FB" cx="142.5" cy="148" rx="30.5" ry="7"></ellipse>
            </g>
        </g>
    </g>
</svg>