<?xml version="1.0" encoding="UTF-8"?>
<svg width="14px" height="14px" viewBox="0 0 14 14" version="1.1" xmlns="http://www.w3.org/2000/svg" xmlns:xlink="http://www.w3.org/1999/xlink">
    <title>ic/sx备份</title>
    <g id="智慧云助理" stroke="none" stroke-width="1" fill="none" fill-rule="evenodd">
        <g id="1009运营数据" transform="translate(-298.000000, -118.000000)" fill="#FFFFFF">
            <g id="ic/sx备份" transform="translate(298.000000, 118.000000)">
                <rect id="矩形" fill-opacity="0" x="0" y="0" width="14" height="14"></rect>
                <path d="M13.7780759,1.955 L12.8152669,2.69 C11.5025008,1.05166667 9.46079945,0 7.16815321,0 C3.20936943,0 0.00512744191,3.125 0,6.99166667 C-0.00511520695,10.8616667 3.20595521,14 7.16815321,14 C10.2631403,14 12.9006224,12.0833333 13.9044019,9.39833333 C13.9300086,9.32833333 13.8924522,9.25 13.8207536,9.22666667 L12.8528233,8.90166667 C12.7828319,8.87833333 12.706012,8.91333333 12.6804054,8.98166667 C12.6496775,9.065 12.6155353,9.14833333 12.579686,9.23 C12.2843563,9.91333333 11.8609935,10.5266667 11.3215473,11.0533333 C10.7821012,11.58 10.1538854,11.9933333 9.45567812,12.2833333 C8.73357138,12.5816667 7.96366561,12.7333333 7.17156743,12.7333333 C6.37776214,12.7333333 5.60956348,12.5816667 4.88745673,12.2833333 C4.1892495,11.995 3.5610337,11.5816667 3.02158753,11.0533333 C2.48214136,10.5266667 2.05877854,9.91333333 1.76344883,9.23 C1.45787647,8.52333333 1.30252963,7.77333333 1.30252963,6.99833333 C1.30252963,6.22333333 1.45787647,5.47333333 1.76344883,4.76666667 C2.05877854,4.08333333 2.48214136,3.47 3.02158753,2.94333333 C3.5610337,2.41666667 4.1892495,2.00333333 4.88745673,1.71333333 C5.60956348,1.415 6.37946925,1.26333333 7.17156743,1.26333333 C7.96537271,1.26333333 8.73357138,1.415 9.45567812,1.71333333 C10.1538854,2.00166667 10.7821012,2.415 11.3215473,2.94333333 C11.490551,3.10833333 11.6493121,3.28333333 11.7961234,3.46666667 L10.7684443,4.25 C10.6779676,4.31833333 10.7086955,4.45833333 10.8196575,4.485 L13.8173394,5.20166667 C13.9026948,5.22166667 13.9863431,5.15833333 13.9863431,5.07333333 L14,2.05833333 C13.9982929,1.94833333 13.8668456,1.88666667 13.7780759,1.955 L13.7780759,1.955 Z" id="路径" fill-opacity="0.9"></path>
            </g>
        </g>
    </g>
</svg>