<?xml version="1.0" encoding="UTF-8"?>
<svg width="16px" height="16px" viewBox="0 0 16 16" version="1.1" xmlns="http://www.w3.org/2000/svg" xmlns:xlink="http://www.w3.org/1999/xlink">
    <title>ic/搜索</title>
    <g id="智慧云助理" stroke="none" stroke-width="1" fill="none" fill-rule="evenodd">
        <g id="1002代付到期" transform="translate(-30.000000, -106.000000)">
            <g id="搜索栏" transform="translate(0.000000, 88.000000)">
                <g id="搜索框" transform="translate(20.000000, 8.000000)">
                    <g id="ic/搜索" transform="translate(10.000000, 10.000000)">
                        <rect id="矩形" fill-rule="nonzero" x="0" y="0" width="16" height="16"></rect>
                        <g id="编组-3" transform="translate(1.333333, 1.333333)" fill="#CCCCCC">
                            <path d="M6.33333333,0 C9.83113675,0 12.6666667,2.83552992 12.6666667,6.33333333 C12.6666667,7.90221857 12.0962059,9.33786556 11.1513937,10.4441649 L12.9867184,12.2796116 C13.1819805,12.4748737 13.1819805,12.7914562 12.9867184,12.9867184 C12.7914562,13.1819805 12.4748737,13.1819805 12.2796116,12.9867184 L10.4441649,11.1513937 C9.33786556,12.0962059 7.90221857,12.6666667 6.33333333,12.6666667 C2.83552992,12.6666667 0,9.83113675 0,6.33333333 C0,2.83552992 2.83552992,0 6.33333333,0 Z M6.33333333,1 C3.38781467,1 1,3.38781467 1,6.33333333 C1,9.278852 3.38781467,11.6666667 6.33333333,11.6666667 C9.278852,11.6666667 11.6666667,9.278852 11.6666667,6.33333333 C11.6666667,3.38781467 9.278852,1 6.33333333,1 Z" id="形状结合"></path>
                        </g>
                    </g>
                </g>
            </g>
        </g>
    </g>
</svg>