<?xml version="1.0" encoding="UTF-8"?>
<svg width="22px" height="22px" viewBox="0 0 22 22" version="1.1" xmlns="http://www.w3.org/2000/svg" xmlns:xlink="http://www.w3.org/1999/xlink">
    <title>ic/zjhs</title>
    <defs>
        <linearGradient x1="50%" y1="-34.3278583%" x2="50%" y2="100%" id="linearGradient-1">
            <stop stop-color="#FFC68A" offset="0%"></stop>
            <stop stop-color="#FF8C2E" offset="100%"></stop>
        </linearGradient>
    </defs>
    <g id="智慧云助理" stroke="none" stroke-width="1" fill="none" fill-rule="evenodd">
        <g id="1009运营数据" transform="translate(-32.000000, -589.000000)">
            <g id="编组" transform="translate(32.000000, 589.000000)">
                <rect id="矩形" fill-opacity="0" fill="#FFFFFF" x="0" y="0" width="22" height="22"></rect>
                <circle id="椭圆形" fill="url(#linearGradient-1)" cx="11" cy="11" r="9.5"></circle>
                <polygon id="路径" fill="#FFFFFF" fill-rule="nonzero" points="6.25 8.88264056 9.31968729 6.25 9.31968729 11.6219528"></polygon>
                <path d="M8.66584389,15.4590619 L8.66584389,14.1160737 L13.1963186,14.1160737 C14.5208041,14.1160737 15.5945118,13.042366 15.5945118,11.7178805 C15.5945118,10.393395 14.5208041,9.31968729 13.1963186,9.31968729 L8.36041001,9.31968729 L8.36041001,7.9766991 L13.1963186,7.9766991 C15.2626019,7.9766991 16.9375,9.65159722 16.9375,11.7178805 C16.9375,13.7841637 15.2626019,15.4590619 13.1963186,15.4590619 L8.66584389,15.4590619 Z" id="路径" fill="#FFFFFF" fill-rule="nonzero"></path>
            </g>
        </g>
    </g>
</svg>