<?xml version="1.0" encoding="UTF-8"?>
<svg width="24px" height="24px" viewBox="0 0 24 24" version="1.1" xmlns="http://www.w3.org/2000/svg" xmlns:xlink="http://www.w3.org/1999/xlink">
    <title>ic_window_Menu_Screen_L</title>
    <g id="ic_window_Menu_Screen_L" stroke="none" stroke-width="1" fill="none" fill-rule="evenodd">
        <path d="M19.5,4 C21.4329966,4 23,5.56700338 23,7.5 L23,16.5 C23,18.4329966 21.4329966,20 19.5,20 L4.5,20 C2.56700338,20 1,18.4329966 1,16.5 L1,7.5 C1,5.56700338 2.56700338,4 4.5,4 L19.5,4 Z M19.5,5.5 L4.5,5.5 C3.4456382,5.5 2.58183488,6.31587779 2.50548574,7.35073766 L2.5,7.5 L2.5,16.5 C2.5,17.5543618 3.31587779,18.4181651 4.35073766,18.4945143 L4.5,18.5 L19.5,18.5 C20.5543618,18.5 21.4181651,17.6841222 21.4945143,16.6492623 L21.5,16.5 L21.5,7.5 C21.5,6.4456382 20.6841222,5.58183488 19.6492623,5.50548574 L19.5,5.5 Z" id="矩形" fill="#000000" fill-rule="nonzero"></path>
        <rect id="矩形" fill="#000000" x="3.5" y="6.5" width="8.5" height="11" rx="1.5"></rect>
    </g>
</svg>