<svg height="24" viewBox="0 0 24 24" width="24" xmlns="http://www.w3.org/2000/svg"><path d="m22.7180574 4c.4457594 0 .6074025.04641281.7703655.13356635.1629629.08715355.2908572.21504784.3780107.3780108.0871536.16296296.1335664.32460608.1335664.77036545v12.4361148c0 .4457594-.0464128.6074025-.1335664.7703655-.0871535.1629629-.2150478.2908572-.3780107.3780107-.162963.0871536-.3246061.1335664-.7703655.1335664h-1.2180574v.5c0 .2761424-.2238576.5-.5.5h-18c-.27614237 0-.5-.2238576-.5-.5v-.5h-1.2180574c-.44575937 0-.60740249-.0464128-.77036545-.1335664-.16296296-.0871535-.29085725-.2150478-.3780108-.3780107-.08256652-.154386-.12856794-.3075874-.13318147-.7023019l-.00038488-12.5041784c0-.44575937.04641281-.60740249.13356635-.77036545.08715355-.16296296.21504784-.29085725.3780108-.3780108.15438596-.08256652.30758736-.12856794.70230185-.13318147zm-.2180574 1.5h-21v12h21z"/></svg>