<?xml version="1.0" encoding="UTF-8"?>
<svg xmlns="http://www.w3.org/2000/svg" xmlns:xlink="http://www.w3.org/1999/xlink" width="24" height="24" viewBox="0 0 24 24" version="1.1">
    <title>ohos_ic_public_video_off</title>
    <defs>
        <path d="M3.26766049,4.20758912 L4.759,5.7 L3.5,5.7 C2.41627143,5.7 1.53386428,6.56195944 1.50095171,7.63770517 L1.5,16.2 C1.5,17.2837286 2.36195944,18.1661357 3.43770517,18.1990483 L3.5,18.2 L15,18.2 C15.61830089,18.2 16.1710848,17.91942 16.53795,17.4786376 L17.6017863,18.5411361 C16.9611406,19.2526464 16.0328128,19.7 15,19.7 L3.5,19.7 C1.56700338,19.7 0,18.1329966 0,16.2 L0,7.7 C0,5.84507326 1.44298317,4.32717329 3.26766049,4.20758912 Z M15,4.2 C 16.9309935,4.2 18.4967519,5.76375738 18.499995,7.69399186 L18.5,16.2 C18.5,16.7336494 18.3805683,17.239404 18.1669757,17.6919929 L16.9773817,16.5017776 C16.989251,16.4233516 16.9965659,16.3434313 16.9990483,16.2622948 L17,16.2 L17,14.766 L17,9.13417323 L17,7.7 C17,6.61627143 16.1380406,5.73386428 15.0622948,5.70095171 L6.174,5.7 L4.674,4.2 L15,4.2 Z M23.7994463,7.54097638 C23.9311765,7.79189105 24,8.07104371 24,8.3544357 L24,15.5455643 C24,16.5120626 23.2164983,17.2955643 22.25,17.2955643 C21.966608,17.2955643 21.6874553,17.2267408 21.4365407,17.0950106 L19.5,16.078 L19.5,14.384 L22.1337915,15.7669138 C22.1472334,15.7739708 22.1612425,15.779764 22.1756381,15.7842489 L22.2198037,15.793934 L22.25,15.7955643 C22.3880712,15.7955643 22.5,15.6836355 22.5,15.5455643 L22.5,8.3544357 C22.5,8.31395113 22.4901681,8.27407218 22.4713495,8.23822723 L22.4563079,8.21319502 C22.3857267,8.10982216 22.2473075,8.07349035 22.1337915,8.13308622 L19.5,9.515 L19.5,7.821 L21.4365407,6.80498937 C22.2922763,6.35572819 23.3501852,6.6852408 23.7994463,7.54097638 Z" id="path-1"/>
    </defs>
    <g id="ohos_ic_public_video_off" stroke="none" stroke-width="1" fill="none" fill-rule="evenodd">
        <mask id="mask-2" fill="#FFFFFF">
            <use xlink:href="#path-1"/>
        </mask>
        <use id="形状结合" fill="#000000" fill-rule="nonzero" xlink:href="#path-1"/>
        <path d="M0.219669914,2.21966991 C0.500847404,1.93849242 0.949738137,1.92724532 1.24433269,2.185992862 L1.28033009,2.221966991 L19.7803301,20.7196699 C20.0732233,21.0125631 20.0732233,21.4874369 19.7803301,21.7803301 C19.4991526,22.0615076 19.0502619,22.0727547 18.7556673,21.8140714 L18.7196699,21.7803301 L0.219669914,3.28033009 C-0.0732233047,2.98743687 -0.0732233047,2.51256313 0.219669914,2.21966991 Z" id="path-2" fill="#000000" fill-rule="nonzero" />
    </g>
</svg>