<?xml version="1.0" encoding="UTF-8"?>
<svg width="24px" height="24px" viewBox="0 0 24 24" version="1.1" xmlns="http://www.w3.org/2000/svg" xmlns:xlink="http://www.w3.org/1999/xlink">
    <title>电话</title>
    <g id="电话" stroke="none" stroke-width="1" fill="none" fill-rule="evenodd">
        <g id="ic_public_phone" transform="translate(2.000000, 2.000000)" fill="#000000" fill-rule="nonzero">
            <path d="M3.07220725,0.0619497211 C2.48481912,0.196478141 1.92163811,0.579696171 1.36295888,1.18722699 L1.30500863,1.25152585 L1.32206088,1.2340245 C0.224835671,2.32233995 -0.232312559,3.89725358 0.113248871,5.40085665 C0.745704261,8.1232299 2.81723973,11.3712736 5.61079392,14.1933966 C8.4382577,16.9922915 11.6863017,19.0638206 14.4069346,19.6958739 L14.4991801,19.7160531 C15.9455745,20.0165169 17.4455408,19.581154 18.5082636,18.5538379 L18.5580605,18.5042242 L18.5417826,18.5194113 C19.2232937,17.9125363 19.6410372,17.3013547 19.763708,16.6605609 C19.9453569,15.7116839 19.5777677,14.7362994 18.8222668,14.1284479 L16.7960284,12.4860212 L16.7960284,12.4860212 C15.8779968,11.6711146 14.4981939,11.6886376 13.604312,12.5207694 L13.5527052,12.570379 L13.5278063,12.595554 L12.591639,13.5878975 C12.4596026,13.7199102 12.2330746,13.7459839 12.0577582,13.6364508 C11.2222557,13.1170891 10.0353644,12.1037708 8.8852683,10.9334399 L8.6661357,10.7158428 C7.58101351,9.6271684 6.66002696,8.5351338 6.17397505,7.75321364 C6.06353902,7.57644831 6.08961264,7.34992031 6.23652313,7.20343477 L7.21396885,6.28171655 L7.23914385,6.25681763 L7.27964007,6.21482875 C8.1053067,5.32806041 8.1374768,3.98246659 7.37008279,3.067393 L7.2587796,2.93591264 L6.13223777,1.54704688 C5.97633397,1.35389272 5.82200627,1.16242016 5.68107494,0.987256071 C5.07322347,0.231755131 4.09783903,-0.135834059 3.148962,0.0458148711 L3.07220725,0.0619497211 Z M18.2904606,16.3785287 C18.2397566,16.6433909 18.0014509,16.992045 17.5442388,17.3991853 L17.5105231,17.4311346 C16.7873263,18.160252 15.7421496,18.4636342 14.744641,18.2343845 C12.3343391,17.6744247 9.3127574,15.7473281 6.6714403,13.1327501 C4.06220291,10.4967737 2.13509995,7.47519147 1.57473827,5.06315029 C1.35242729,4.09582408 1.63236923,3.08188065 2.31693762,2.36176796 L2.41033759,2.26528407 C2.81747789,1.80807193 3.16613202,1.56976633 3.43099414,1.51906226 C3.83015246,1.44264911 4.24935194,1.60063113 4.51238014,1.92754988 L5.92859877,3.67849596 L6.23690757,4.05085543 C6.50211542,4.38456509 6.48561124,4.86651558 6.19084937,5.18315087 L6.17149427,5.20301532 L5.19229807,6.12679031 C4.535534,6.78124912 4.42080142,7.7780476 4.90094523,8.546556 C5.49151914,9.4966262 6.57668241,10.767672 7.82464876,11.99406 L8.0608071,12.2318132 C9.2045201,13.3708 10.3742794,14.35616 11.2644158,14.9094806 L11.3195885,14.9427028 C12.0787396,15.3829592 13.0435121,15.2587064 13.6682834,14.6321225 L14.6060407,13.6382689 L14.6359899,13.6095601 C14.9433508,13.3235862 15.4249701,13.3073958 15.7609701,13.574668 L15.9454137,13.7290228 C16.2922561,14.0144041 17.1572673,14.7140681 17.881973,15.2971427 C18.2088918,15.5601709 18.3668738,15.9793704 18.2904606,16.3785287 Z" id="path-1"></path>
        </g>
    </g>
</svg>