<?xml version="1.0" encoding="UTF-8"?>
<svg width="24px" height="24px" viewBox="0 0 24 24" version="1.1" xmlns="http://www.w3.org/2000/svg" xmlns:xlink="http://www.w3.org/1999/xlink">
    <title>ic_e</title>
    <g id="ic_e" stroke="none" stroke-width="1" fill="none" fill-rule="evenodd">
        <path d="M12,1 C18.0751322,1 23,5.92486775 23,12 C23,18.0751322 18.0751322,23 12,23 C5.92486775,23 1,18.0751322 1,12 C1,5.92486775 5.92486775,1 12,1 Z M12,2.5 C6.75329488,2.5 2.5,6.75329488 2.5,12 C2.5,17.2467051 6.75329488,21.5 12,21.5 C17.2467051,21.5 21.5,17.2467051 21.5,12 C21.5,6.75329488 17.2467051,2.5 12,2.5 Z" id="椭圆形" fill="#000000" fill-rule="nonzero"></path>
        <path d="M12,10 C7.49389138,10 3.52325737,8.32460969 1.19092586,5.77974176 C1.52603904,6.1449148 1.89470429,6.49229657 2.29388771,6.8193632 C2.53276452,6.37275319 2.80156489,5.94455416 3.09761011,5.53744481 C5.19246022,7.32814527 8.37946413,8.5 12,8.5 C15.6205359,8.5 18.8075398,7.32814527 20.9026691,5.53746878 C21.1979177,5.9434381 21.4672285,6.37230425 21.7065297,6.81964322 C21.9523561,6.61815335 22.1866102,6.40896011 22.4085293,6.19262073 L22.6015689,5.99943118 C20.2454635,8.42059045 16.3751308,10 12,10 Z" id="形状结合" fill="#000000" fill-rule="nonzero"></path>
        <path d="M12,18 C7.49389138,18 3.52325737,16.3246097 1.19092586,13.7797418 C1.52603904,14.1449148 1.89470429,14.4922966 2.29388771,14.8193632 C2.53276452,14.3727532 2.80156489,13.9445542 3.09761011,13.5374448 C5.19246022,15.3281453 8.37946413,16.5 12,16.5 C15.6205359,16.5 18.8075398,15.3281453 20.9026691,13.5374688 C21.1979177,13.9434381 21.4672285,14.3723042 21.7065297,14.8196432 C21.9523561,14.6181534 22.1866102,14.4089601 22.4085293,14.1926207 L22.6015689,13.9994312 C20.2454635,16.4205905 16.3751308,18 12,18 Z" id="形状结合备份" fill="#000000" fill-rule="nonzero" transform="translate(11.355050, 15.767868) scale(1, -1) translate(-11.355050, -15.767868) "></path>
        <ellipse id="椭圆形备份" stroke="#000000" stroke-width="1.5" cx="12" cy="12" rx="5.25" ry="10.25"></ellipse>
    </g>
</svg>