<?xml version="1.0" encoding="UTF-8"?>
<svg width="24px" height="24px" viewBox="0 0 24 24" version="1.1" xmlns="http://www.w3.org/2000/svg" xmlns:xlink="http://www.w3.org/1999/xlink">
    <title>svgic_hop</title>
    <defs>
        <path d="M22,11.35 C22.4142136,11.35 22.75,11.6857864 22.75,12.1 C22.75,18.0370611 17.9370611,22.85 12,22.85 C6.06293894,22.85 1.25,18.0370611 1.25,12.1 C1.25,11.6857864 1.58578644,11.35 2,11.35 C2.41421356,11.35 2.75,11.6857864 2.75,12.1 C2.75,17.2086339 6.89136606,21.35 12,21.35 C17.1086339,21.35 21.25,17.2086339 21.25,12.1 C21.25,11.6857864 21.5857864,11.35 22,11.35 Z M13.1125988,7.1632679 L13.2374369,7.2767767 L16.5303301,10.5696699 C16.8232233,10.8625631 16.8232233,11.3374369 16.5303301,11.6303301 C16.2640635,11.8965966 15.8473998,11.9208027 15.5537883,11.7029482 L15.4696699,11.6303301 L12.75,8.91121356 L12.75,12.6 C12.75,14.8781746 10.957493,16.7376867 8.70591634,16.8450991 L8.5,16.85 L8,16.85 C7.58578644,16.85 7.25,16.5142136 7.25,16.1 C7.25,15.7203042 7.53215388,15.406509 7.89822944,15.3568466 L8,15.35 L8.5,15.35 C9.96253184,15.35 11.1584043,14.2082954 11.2449812,12.7675223 L11.25,12.6 L11.25,8.91021356 L8.53033009,11.6303301 C8.23743687,11.9232233 7.76256313,11.9232233 7.46966991,11.6303301 C7.20340335,11.3640635 7.1791973,10.9473998 7.39705176,10.6537883 L7.46966991,10.5696699 L10.7625631,7.2767767 C11.4057796,6.63356021 12.4251311,6.59572395 13.1125988,7.1632679 Z M20.8641887,7.34598182 C21.3762582,7.13909231 21.9590897,7.38648958 22.1659792,7.89855908 C22.3728687,8.41062859 22.1254714,8.99346002 21.6134019,9.20034953 C21.1013324,9.40723904 20.518501,9.15984177 20.3116115,8.64777227 C20.104722,8.13570277 20.3521192,7.55287133 20.8641887,7.34598182 Z M1.84069982,7.88243455 C2.05649466,7.37405376 2.64355501,7.13686598 3.1519358,7.35266082 C3.6603166,7.56845567 3.89750437,8.15551601 3.68170953,8.6638968 C3.46591468,9.1722776 2.87885434,9.40946537 2.37047355,9.19367053 C1.86209275,8.97787569 1.62490498,8.39081534 1.84069982,7.88243455 Z M18.363961,4.32182541 C18.7544853,3.93130112 19.3876503,3.93130112 19.7781746,4.32182541 C20.1686989,4.7123497 20.1686989,5.34551468 19.7781746,5.73603897 C19.3876503,6.12656326 18.7544853,6.12656326 18.363961,5.73603897 C17.9734367,5.34551468 17.9734367,4.7123497 18.363961,4.32182541 Z M4.22182541,4.32182541 C4.6123497,3.93130112 5.24551468,3.93130112 5.63603897,4.32182541 C6.02656326,4.7123497 6.02656326,5.34551468 5.63603897,5.73603897 C5.24551468,6.12656326 4.6123497,6.12656326 4.22182541,5.73603897 C3.83130112,5.34551468 3.83130112,4.7123497 4.22182541,4.32182541 Z M7.79855908,1.93402082 C8.31062859,1.72713131 8.89346002,1.97452858 9.10034953,2.48659808 C9.30723904,2.99866758 9.05984177,3.58149902 8.54777227,3.78838853 C8.03570277,3.99527804 7.45287133,3.74788077 7.24598182,3.23581127 C7.03909231,2.72374177 7.28648958,2.14091033 7.79855908,1.93402082 Z M14.9063295,2.47047355 C15.1221243,1.96209275 15.7091847,1.72490498 16.2175655,1.94069982 C16.7259462,2.15649466 16.963134,2.74355501 16.7473392,3.2519358 C16.5315443,3.7603166 15.944484,3.99750437 15.4361032,3.78170953 C14.9277224,3.56591468 14.6905346,2.97885434 14.9063295,2.47047355 Z M12,1.1 C12.5522847,1.1 13,1.54771525 13,2.1 C13,2.65228475 12.5522847,3.1 12,3.1 C11.4477153,3.1 11,2.65228475 11,2.1 C11,1.54771525 11.4477153,1.1 12,1.1 Z" id="path-1"></path>
    </defs>
    <g id="ic_hop" stroke="none" stroke-width="1" fill="none" fill-rule="evenodd">
        <mask id="mask-2" fill="white">
            <use xlink:href="#path-1"></use>
        </mask>
        <use id="蒙版" fill="#000000" fill-rule="nonzero" xlink:href="#path-1"></use>
    </g>
</svg>