<svg height="24" viewBox="0 0 24 24" width="24" xmlns="http://www.w3.org/2000/svg"><path d="m14.6541722.5c1.3372781 0 1.8222075.13923842 2.3110964.40069906.4888888.26146063.8725717.6451435 1.1340323 1.13403238l.0402651.07728493c.2354666.46501024.360434.96691638.360434 2.23381143v3.4041722c.2761424 0 .5.22385763.5.5v2c0 .2761424-.2238576.5-.5.5v8.9041722l-.0011546.2041908c-.0138406 1.1841435-.1518449 1.6437477-.3995445 2.1069056-.2614606.4888888-.6451435.8725717-1.1340323 1.1340323l-.077285.0402651c-.4650102.2354666-.9669163.360434-2.2338114.360434h-5.3083444l-.20419079-.0011546c-1.18414348-.0138406-1.64374767-.1518449-2.10690557-.3995445-.48888888-.2614606-.87257175-.6451435-1.13403238-1.1340323l-.04026509-.077285c-.23546653-.4650102-.36043397-.9669163-.36043397-2.2338114v-15.3083444c0-1.33727811.13923842-1.82220747.40069906-2.31109636.26146063-.48888888.6451435-.87257175 1.13403238-1.13403238l.07728493-.04026508c.46501024-.23546654.96691638-.36043398 2.23381143-.36043398zm.0883699 1.5h-5.3967143l-.25416248.00148376c-.79363603.01001266-1.068998.07190195-1.34953559.22193509-.22748618.12166094-.39704994.2912247-.51871088.51871088-.16003535.2992401-.21978259.59259148-.22325667 1.51532821v15.48508416l.0013869.1709056c.01021394.7897074.07215928 1.0644883.22186977 1.3444226.12166094.2274861.2912247.3970499.51871088.5187108.28053759.1500332.55589956.2119225 1.34953559.2219351l.25416248.0014838h5.3083444c.9927779 0 1.2951067-.0583824 1.6036981-.2234189.2274861-.1216609.3970499-.2912247.5187108-.5187108.1500332-.2805376.2119225-.5558996.2219351-1.3495356l.0014838-.2541625v-15.3083444c0-.99277788-.0583824-1.29510672-.2234189-1.60369807-.1216609-.22748618-.2912247-.39704994-.5187108-.51871088-.2992401-.16003535-.5925915-.21978259-1.5153282-.22341885z"/></svg>