<?xml version="1.0" encoding="UTF-8"?>
<svg width="64px" height="64px" viewBox="0 0 64 64" version="1.1" xmlns="http://www.w3.org/2000/svg" xmlns:xlink="http://www.w3.org/1999/xlink">
    <title>ic_face_done</title>
    <defs>
        <path d="M32,0 C49.673112,0 64,14.326888 64,32 C64,49.673112 49.673112,64 32,64 C14.326888,64 0,49.673112 0,32 C0,14.326888 14.326888,0 32,0 Z M32,4 C16.536027,4 4,16.536027 4,32 C4,47.463973 16.536027,60 32,60 C47.463973,60 60,47.463973 60,32 C60,16.536027 47.463973,4 32,4 Z M22.5322883,41.5840607 C24.8678603,44.3683639 28.3007494,46.0052367 32.0048654,46.0052367 C35.7044097,46.0052367 39.1334778,44.3724376 41.4690601,41.594043 C42.1798192,40.7485283 43.4414285,40.6392872 44.2869433,41.3500464 C45.132458,42.0608055 45.2416991,43.3224148 44.5309399,44.1679296 C41.443208,47.8410768 36.8982204,50.0052367 32.0048654,50.0052367 C27.1054531,50.0052367 22.5554256,47.8356892 19.4677117,44.1547359 C18.7578394,43.3084764 18.868403,42.0469824 19.7146624,41.33711 C20.5609219,40.6272377 21.8224159,40.7378013 22.5322883,41.5840607 Z M32.5105651,25.966267 C33.5299922,26.2354272 34.1568953,27.244786 33.9665331,28.2648479 L33.933733,28.4105651 L32.341,34.44 L34.2549002,34.4402917 C35.309262,34.4402917 36.1730653,35.2561695 36.2494144,36.2910294 L36.2549002,36.4402917 C36.2549002,37.4946535 35.4390224,38.3584569 34.4041625,38.434806 L34.2549002,38.4402917 L31.0433996,38.4402917 C30.7849007,38.4402917 30.5274859,38.4068815 30.277552,38.3408912 C28.7328079,37.9330312 27.788927,36.3920984 28.1027247,34.8461764 L28.1428001,34.6744441 L30.066267,27.3894349 C30.3482443,26.3214637 31.4425938,25.6842897 32.5105651,25.966267 Z M19.8,21.7 C21.5673112,21.7 23,23.1326888 23,24.9 C23,26.6673112 21.5673112,28.1 19.8,28.1 C18.0326888,28.1 16.6,26.6673112 16.6,24.9 C16.6,23.1326888 18.0326888,21.7 19.8,21.7 Z M44.2,21.7 C45.9673112,21.7 47.4,23.1326888 47.4,24.9 C47.4,26.6673112 45.9673112,28.1 44.2,28.1 C42.4326888,28.1 41,26.6673112 41,24.9 C41,23.1326888 42.4326888,21.7 44.2,21.7 Z" id="path-1"></path>
    </defs>
    <g id="ic_face_done" stroke="none" stroke-width="1" fill="none" fill-rule="evenodd">
        <g>
            <mask id="mask-2" fill="white">
                <use xlink:href="#path-1"></use>
            </mask>
            <g fill-rule="nonzero"></g>
            <g id="编组" mask="url(#mask-2)" fill="#000000" fill-opacity="0.9">
                <g id="Symbol/color-light/colorPrimary">
                    <rect id="color/#000000" x="0" y="0" width="64" height="64"></rect>
                </g>
            </g>
        </g>
    </g>
</svg>