<?xml version="1.0" encoding="UTF-8"?>
<svg width="24px" height="24px" viewBox="0 0 24 24" version="1.1" xmlns="http://www.w3.org/2000/svg" xmlns:xlink="http://www.w3.org/1999/xlink">
    <title>ic_public_drawer_open</title>
    <defs>
        <path d="M21.25,17.9482759 C21.6642136,17.9482759 22,18.2840623 22,18.6982759 L22,18.75 C22,19.1642136 21.6642136,19.5 21.25,19.5 L2.75,19.5 C2.33578644,19.5 2,19.1642136 2,18.75 L2,18.6982759 C2,18.2840623 2.33578644,17.9482759 2.75,17.9482759 L21.25,17.9482759 Z M18.928479,9.29664948 C19.1937277,9.29664948 19.4481097,9.40203181 19.6356515,9.58960835 L21.1028359,11.0570653 C21.4931414,11.4477059 21.4931414,12.0807696 21.1028359,12.4714102 L19.6356515,13.9388671 C19.2451634,14.3294277 18.6119984,14.3294865 18.2214379,13.9389984 C18.0338614,13.7514567 17.928479,13.4970747 17.928479,13.231826 L17.928479,10.2966495 C17.928479,9.74436473 18.3761943,9.29664948 18.928479,9.29664948 Z M14.25,11.2241379 C14.6642136,11.2241379 15,11.5599244 15,11.9741379 L15,12.0258621 C15,12.4400756 14.6642136,12.7758621 14.25,12.7758621 L2.75,12.7758621 C2.33578644,12.7758621 2,12.4400756 2,12.0258621 L2,11.9741379 C2,11.5599244 2.33578644,11.2241379 2.75,11.2241379 L14.25,11.2241379 Z M21.25,4.5 C21.6642136,4.5 22,4.83578644 22,5.25 L22,5.30172414 C22,5.7159377 21.6642136,6.05172414 21.25,6.05172414 L2.75,6.05172414 C2.33578644,6.05172414 2,5.7159377 2,5.30172414 L2,5.25 C2,4.83578644 2.33578644,4.5 2.75,4.5 L21.25,4.5 Z" id="path-1"></path>
    </defs>
    <g id="ic_public_drawer_open" stroke="none" stroke-width="1" fill="none" fill-rule="evenodd">
        <mask id="mask-2" fill="white">
            <use xlink:href="#path-1"></use>
        </mask>
        <use id="形状结合" fill="#000000" fill-rule="nonzero" xlink:href="#path-1"></use>
    </g>
</svg>