<?xml version="1.0" encoding="UTF-8"?>
<svg width="54px" height="54px" viewBox="0 0 54 54" version="1.1" xmlns="http://www.w3.org/2000/svg" xmlns:xlink="http://www.w3.org/1999/xlink">
	<title>设置背景</title>
	<defs>
		<path d="M17.9471964,1.81745924e-16 L36.0528036,1.63192235e-15 C42.2934348,-9.48193884e-16 44.5564384,0.649779278 46.8379199,1.86992893 C49.1194014,3.09007857 50.9099214,4.88059859 52.1300711,7.16208008 C53.3502207,9.44356156 54,11.7065652 54,17.9471964 L54,36.0528036 C54,42.2934348 53.3502207,44.5564384 52.1300711,46.8379199 C50.9099214,49.1194014 49.1194014,50.9099214 46.8379199,52.130711 C44.5564384,53.3502207 42.2934348,54 36.0528036,54 L17.9471964,54 C11.7065652,54 9.44356156,53.3502207 7.16208008,52.1300711 C4.88059859,50.9099214 3.09007857,49.1194014 1.86992893,46.8379199 C0.649779278,44.5564384 -2.46031994e-16,42.2934348 4.23441996e-16,36.0528036 L1.39022628e-15,17.9471964 C-8.07761506e-16,11.7065652 0.649779278,9.44356156 1.86992893,7.16208008 C3.09007857,4.88059859 4.88059859,3.09007857 7.16208008,1.86992893 C9.44356156,0.649779278 11.7065652,-1.05599616e-16 17.9471964,1.81745924e-16 Z" id="path-1"></path>
	</defs>
	<g id="图标规范" stroke="none" stroke-width="1" fill="none" fill-rule="evenodd">
		<g id="MASK">
			<mask id="mask-2" fill="white">
				<use xlink:href="#path-1"></use>
			</mask>
			<use id="设置背景" fill="#000000" xlink:href="#path-1"></use>
		</g>
	</g>
</svg>