<?xml version="1.0" encoding="UTF-8"?>
<svg width="25" height="24" viewBox="0 0 25 24" version="1.1" xmlns="http://www.w3.org/2000/svg" xmlns:xlink="http://www.w3.org/1999/xlink">
    <title>ohos_ic_public_hang_up</title>
    <defs>
        <path d="M22.1681776,10.2426749 C23.2438123,10.8938318 23.9175406,12.009229 23.9844546,13.2277907 L23.9899221,13.4438285 C24.036092,14.2142498 23.9236229,14.7925421 23.6525147,15.1787054 C23.2458524,15.7579502 22.5323989,16.0639009 21.8149337,15.9887911 L19.0569789,15.7108031 C18.1798077,15.6603387 17.492394,14.9749835 17.461207,14.1323232 L17.4601018,14.0732837 L17.5016973,12.6929341 C17.502542,12.1292011 17.1017919,11.6409865 16.5340274,11.5142385 C15.5084081,11.2829004 13.959236,11.1621982 12.3678261,11.1577294 L12.000047,11.158764 C10.2821962,11.1442833 8.5704857,11.2651052 7.46597262,11.5142385 C6.89820809,11.6409865 6.49745804,12.1292011 6.49830271,12.6929341 L6.53989821,14.0732837 L6.53879297,14.1323232 C6.50844887,14.9522089 5.85687044,15.6231776 5.01371806,15.7053295 L4.79826947,15.7231697 C4.31266522,15.768458 2.80686948,15.9236959 2.18506631,15.9887911 C1.46760111,16.0639009 0.754147567,15.7579502 0.347485308,15.1787054 C0.103487953,14.8311585 -0.0120117909,14.327987 0.000986075983,13.669191 L0.0100778691,13.4438285 C0.00458790466,12.1420585 0.69291511,10.9321351 1.83182239,10.2426749 C4.26209355,8.77920048 8.13977352,8.01898367 11.999953,8 C15.8602265,8.01898367 19.7379065,8.77920048 22.1681776,10.2426749 Z" id="path-1"></path>
    </defs>
    <g id="ohos_ic_public_hang_up" stroke="none" stroke-width="1" fill="none" fill-rule="evenodd" transform="translate(0.400000, 0.000000)">
        <mask id="mask-2" fill="white">
            <use xlink:href="#path-1"></use>
        </mask>
        <use id="形状结合" fill="#000000" xlink:href="#path-1"></use>
    </g>
</svg>