<?xml version="1.0" encoding="UTF-8"?>
<svg width="24px" height="24px" viewBox="0 0 24 24" version="1.1" xmlns="http://www.w3.org/2000/svg" xmlns:xlink="http://www.w3.org/1999/xlink">
    <title>ohos_ic_public_double_arrow_left</title>
    <defs>
        <path d="M7.03306175,5.59358355 C7.20264439,5.59936249 7.37064012,5.66235298 7.50562821,5.78255501 L7.5376894,5.81281566 L12.4874369,10.7625631 C13.1566165,11.4317428 13.1705578,12.5080354 12.5292606,13.1941781 L12.4874369,13.2374369 L7.5376894,18.1871843 C7.40881638,18.3160574 7.24471194,18.3882262 7.07637972,18.403691 L7.03038941,18.4065028 L6.98432922,18.4065028 C6.80013503,18.4008792 6.61761797,18.3277731 6.47702923,18.1871843 C6.19459648,17.9047516 6.1845096,17.4531048 6.44676858,17.1585854 L6.47702923,17.1265242 L11.0732233,12.5303301 C11.3556561,12.2478973 11.3657429,11.7962506 11.103484,11.5017311 L11.0732233,11.4696699 L6.47702923,6.87347584 C6.18413601,6.58058262 6.18413601,6.10570888 6.47702923,5.81281566 C6.6182456,5.67159929 6.80176548,5.59846938 6.9867962,5.59342594 L7.03306175,5.59358355 Z M12.5330617,5.59358355 C12.7026444,5.59936249 12.8706401,5.66235298 13.0056282,5.78255501 L13.0376894,5.81281566 L17.9874369,10.7625631 C18.6566165,11.4317428 18.6705578,12.5080354 18.0292606,13.1941781 L17.9874369,13.2374369 L13.0376894,18.1871843 C12.9088164,18.3160574 12.7447119,18.3882262 12.5763797,18.403691 L12.5303894,18.4065028 L12.4843292,18.4065028 C12.300135,18.4008792 12.117618,18.3277731 11.9770292,18.1871843 C11.6945965,17.9047516 11.6845096,17.4531048 11.9467686,17.1585854 L11.9770292,17.1265242 L16.5732233,12.5303301 C16.8556561,12.2478973 16.8657429,11.7962506 16.603484,11.5017311 L16.5732233,11.4696699 L11.9770292,6.87347584 C11.684136,6.58058262 11.684136,6.10570888 11.9770292,5.81281566 C12.1182456,5.67159929 12.3017655,5.59846938 12.4867962,5.59342594 L12.5330617,5.59358355 Z" id="path-1"></path>
    </defs>
    <g id="ohos_ic_public_double_arrow_left" stroke="none" stroke-width="1" fill="none" fill-rule="evenodd">
        <mask id="mask-2" fill="white">
            <use xlink:href="#path-1"></use>
        </mask>
        <use id="形状结合" fill="#000000" fill-rule="nonzero" transform="translate(12.378680, 11.999964) scale(-1, 1) translate(-12.378680, -11.999964) " xlink:href="#path-1"></use>
    </g>
</svg>