<?xml version="1.0" encoding="UTF-8"?>
<svg width="24px" height="24px" viewBox="0 0 24 24" version="1.1" xmlns="http://www.w3.org/2000/svg" xmlns:xlink="http://www.w3.org/1999/xlink">
    <title>ic_public_drawer_close_filled</title>
    <defs>
        <path d="M3,4 L21,4 C21.5522847,4 22,4.44771525 22,5 C22,5.55228475 21.5522847,6 21,6 L3,6 C2.44771525,6 2,5.55228475 2,5 C2,4.44771525 2.44771525,4 3,4 Z M3,18 L21,18 C21.5522847,18 22,18.4477153 22,19 C22,19.5522847 21.5522847,20 21,20 L3,20 C2.44771525,20 2,19.5522847 2,19 C2,18.4477153 2.44771525,18 3,18 Z M3,11 L14,11 C14.5522847,11 15,11.4477153 15,12 C15,12.5522847 14.5522847,13 14,13 L3,13 C2.44771525,13 2,12.5522847 2,12 C2,11.4477153 2.44771525,11 3,11 Z M20.3099274,9.72933367 L18.6875292,11.2762599 C18.2878186,11.6573765 18.2727451,12.290362 18.6538617,12.6900726 C18.6648154,12.7015607 18.6760411,12.7127864 18.6875292,12.7237401 L20.3099274,14.2706663 C20.709638,14.6517829 21.3426235,14.6367095 21.7237401,14.2369988 C21.9010722,14.0510151 22,13.8039021 22,13.5469262 L22,10.4530738 C22,9.90078905 21.5522848,9.4530738 21,9.4530738 C20.7430241,9.4530738 20.4959111,9.55200165 20.3099274,9.72933367 Z" id="path-1"></path>
    </defs>
    <g id="ic_public_drawer_close_filled" stroke="none" stroke-width="1" fill="none" fill-rule="evenodd">
        <mask id="mask-2" fill="white">
            <use xlink:href="#path-1"></use>
        </mask>
        <use id="蒙版" fill="#000000" xlink:href="#path-1"></use>
    </g>
</svg>