<?xml version="1.0" encoding="UTF-8"?><svg id="_层_1" xmlns="http://www.w3.org/2000/svg" viewBox="0 0 24 24"><defs><style>.cls-1{fill:none;}</style></defs><g transform="translate(2 2)"><rect class="cls-1" x="2" y="2" width="20" height="20"/><path d="M18.55,3.4c.29-.22,.71-.19,.98,.07,.27,.27,.29,.68,.07,.98l-.07,.08L9.71,14.35c.8,.81,1.29,1.92,1.29,3.15,0,2.49-2.01,4.5-4.5,4.5s-4.5-2.01-4.5-4.5,2.01-4.5,4.5-4.5c.71,0,1.39,.17,1.99,.46h0l.07-.09,2.37-2.37L4.47,4.53c-.29-.29-.29-.77,0-1.06,.27-.27,.68-.29,.98-.07l.08,.07,6.47,6.47,6.47-6.47,.08-.07Zm-4.49,8.6l1.37,1.37s.06,.06,.08,.09c.6-.3,1.28-.46,1.99-.46,2.49,0,4.5,2.01,4.5,4.5s-2.01,4.5-4.5,4.5-4.5-2.01-4.5-4.5c0-1.23,.49-2.34,1.29-3.15l-1.29-1.29,1.06-1.06Zm-7.56,2.5c-1.66,0-3,1.34-3,3s1.34,3,3,3,3-1.34,3-3-1.34-3-3-3Zm11,0c-1.66,0-3,1.34-3,3s1.34,3,3,3,3-1.34,3-3-1.34-3-3-3Z"/></g></svg>