<svg xmlns="http://www.w3.org/2000/svg" width="24" height="24" version="1.1" viewBox="0 0 24 24">
  <path fill="#000" fill-rule="nonzero" stroke="none" stroke-width="1" d="M1.5,16.397 L1.5,16.750453 C1.5,17.6599717 2.1940361,18.4074121 3.08146332,18.4921992 L3.25,18.5002091 L4.117,18.5 L4.117,20 L3.25,20 C1.45507456,20 0,18.5451283 0,16.750453 L0,16.397 L1.5,16.397 Z M11.323,18.5 L11.323,20 L6.176,20 L6.176,18.5 L11.323,18.5 Z M17.5,16.397 L17.5,16.750453 C17.5,18.5451283 16.0449254,20 14.25,20 L13.382,20 L13.382,18.5 L14.25,18.5002091 C15.1596455,18.5002091 15.9071901,17.8062697 15.991989,16.9189662 L16,16.750453 L16,16.397 L17.5,16.397 Z M1.5,8.161 L1.5,14.338 L0,14.338 L0,8.161 L1.5,8.161 Z M17.5,8.161 L17.5,14.338 L16,14.338 L16,8.161 L17.5,8.161 Z M4.117,2.5 L4.117,3.999 L3.25,3.99979092 C2.34035453,3.99979092 1.59280988,4.69373028 1.50801101,5.58103381 L1.5,5.749547 L1.5,6.102 L0,6.102 L0,5.749547 C0,3.95487175 1.45507456,2.5 3.25,2.5 L4.117,2.5 Z M14.25,2.5 C16.0449254,2.5 17.5,3.95487175 17.5,5.749547 L17.5,6.102 L16,6.102 L16,5.749547 C16,4.84002832 15.3059639,4.09258786 14.4185367,4.00780081 L14.25,3.99979092 L13.382,3.999 L13.382,2.5 L14.25,2.5 Z M13.590287,0 C15.8190838,0 16.6272994,0.23206403 17.4421143,0.66783176 C18.2569291,1.10359949 18.8964005,1.74307093 19.3321682,2.55788574 C19.767936,3.37270056 20,4.18091615 20,6.409713 L20,12.3722296 C20,14.1552671 19.8143488,14.8018396 19.4657346,15.4536914 C19.2202776,15.9126561 18.8940321,16.3020799 18.4949174,16.6140435 C18.4981214,16.4695118 18.5,16.316606 18.5,16.1541722 L18.5,6.3458278 C18.5,4.97563815 18.3663256,4.28341544 17.9811141,3.56313259 C17.6264537,2.89997522 17.1000248,2.3735463 16.4368674,2.01888586 C15.7646034,1.65935514 15.1167829,1.51894119 13.9193798,1.50181725 L3.8458278,1.5 C3.68310622,1.5 3.5299464,1.50188529 3.38516578,1.50585327 C3.69792007,1.10596794 4.0873439,0.77972241 4.54630859,0.53426541 C5.19816044,0.18565122 5.84473292,0 7.6277704,0 L13.590287,0 Z M8.75,6.25 C9.1642136,6.25 9.5,6.58578644 9.5,7 L9.5,15.5 C9.5,15.9142136 9.1642136,16.25 8.75,16.25 C8.3357864,16.25 8,15.9142136 8,15.5 L8,12 L4.5,12 C4.08578644,12 3.75,11.6642136 3.75,11.25 C3.75,10.8357864 4.08578644,10.5 4.5,10.5 L8,10.5 L8,7 C8,6.58578644 8.3357864,6.25 8.75,6.25 Z M13,10.5 C13.4142136,10.5 13.75,10.8357864 13.75,11.25 C13.75,11.6642136 13.4142136,12 13,12 L10.5,12 L10.5,10.5 L13,10.5 Z M11.323,2.5 L11.323,3.999 L6.176,3.999 L6.176,2.5 L11.323,2.5 Z" transform="translate(2 2)"/>
</svg>