<?xml version="1.0" encoding="UTF-8"?>
<svg width="24px" height="24px" viewBox="0 0 24 24" version="1.1" xmlns="http://www.w3.org/2000/svg" xmlns:xlink="http://www.w3.org/1999/xlink">
    <title>ic_compnent_titlebar_back</title>
    <defs>
        <path d="M8.7823403,4.19401383 L8.81524592,4.22428894 L15.9739788,10.758314 C16.6607833,11.4278133 16.6750917,12.50462 16.016904,13.1910905 L15.9739788,13.2343699 L8.81405144,19.7814026 C8.68178416,19.9103372 8.51335754,19.9825405 8.34059178,19.9980127 L8.29339018,20.0008258 L8.24611685,20.0008258 C8.05707135,19.9951996 7.86974716,19.9220585 7.72545558,19.7814026 C7.43558412,19.4988349 7.42523157,19.0469724 7.69439793,18.7523123 L7.72545558,18.7202357 L14.5225176,12.5269254 C14.8123891,12.2443577 14.8227416,11.7924952 14.5535753,11.4978351 L14.5225176,11.4657585 L7.72665006,5.28545578 C7.42604262,4.99242265 7.42604262,4.51732207 7.72665006,4.22428894 C7.8715858,4.08300511 8.05993923,4.00984027 8.24984329,4.00479442 L8.29732738,4.00479442 C8.47137649,4.0107338 8.6437969,4.07375438 8.7823403,4.19401383 Z" id="path-1"></path>
    </defs>
    <g id="ic_compnent_titlebar_back" stroke="none" stroke-width="1" fill="none" fill-rule="evenodd">
        <mask id="mask-2" fill="white">
            <use xlink:href="#path-1" transform="translate(12.000021, 12.002810) scale(-1, 1) translate(-12.000021, -12.002810) "></use>
        </mask>
        <use id="路径" fill="#000000" fill-rule="nonzero" transform="translate(12.000021, 12.002810) scale(-1, 1) translate(-12.000021, -12.002810) " xlink:href="#path-1"></use>
    </g>
</svg>