<?xml version="1.0" encoding="UTF-8"?>
<svg width="20px" height="20px" viewBox="0 0 20 20" version="1.1" xmlns="http://www.w3.org/2000/svg" xmlns:xlink="http://www.w3.org/1999/xlink">
    <title>ic_window_Max备份 5</title>
    <g id="ic_window_Max备份-5" stroke="none" stroke-width="1" fill="none" fill-rule="evenodd">
        <g id="关闭" transform="translate(5.000000, 5.000000)" fill="#000000" fill-rule="nonzero">
            <path d="M1.49433269,0.435928615 L1.53033009,0.469669914 L4.94525,3.88475 L8.36057901,0.469669914 C8.65347222,0.176776695 9.12834596,0.176776695 9.42123918,0.469669914 C9.70241667,0.750847404 9.71366377,1.19973814 9.45498048,1.49433269 L9.42123918,1.53033009 L6.006,4.94525 L9.42123918,8.36057901 C9.7141324,8.65347222 9.7141324,9.12834596 9.42123918,9.42123918 C9.14006169,9.70241667 8.69117095,9.71366377 8.3965764,9.45498048 L8.36057901,9.42123918 L4.94525,6.006 L1.53033009,9.42123918 C1.23743687,9.7141324 0.762563133,9.7141324 0.469669914,9.42123918 C0.188492424,9.14006169 0.177245324,8.69117095 0.435928615,8.3965764 L0.469669914,8.36057901 L3.88475,4.94525 L0.469669914,1.53033009 C0.176776695,1.23743687 0.176776695,0.762563133 0.469669914,0.469669914 C0.750847404,0.188492424 1.19973814,0.177245324 1.49433269,0.435928615 Z" id="路径"></path>
        </g>
    </g>
</svg>