<?xml version="1.0" encoding="UTF-8"?>
<svg width="24px" height="24px" viewBox="0 0 24 24" version="1.1" xmlns="http://www.w3.org/2000/svg" xmlns:xlink="http://www.w3.org/1999/xlink">
    <title>Public/ic_public_more_filled</title>
    <defs>
        <path d="M6.5,9 C7.6045695,9 8.5,8.1045695 8.5,7 C8.5,5.8954305 7.6045695,5 6.5,5 C5.3954305,5 4.5,5.8954305 4.5,7 C4.5,8.1045695 5.3954305,9 6.5,9 Z M6.5,19 C7.6045695,19 8.5,18.1045695 8.5,17 C8.5,15.8954305 7.6045695,15 6.5,15 C5.3954305,15 4.5,15.8954305 4.5,17 C4.5,18.1045695 5.3954305,19 6.5,19 Z M17.5,19 C18.6045695,19 19.5,18.1045695 19.5,17 C19.5,15.8954305 18.6045695,15 17.5,15 C16.3954305,15 15.5,15.8954305 15.5,17 C15.5,18.1045695 16.3954305,19 17.5,19 Z M17.5,9 C18.6045695,9 19.5,8.1045695 19.5,7 C19.5,5.8954305 18.6045695,5 17.5,5 C16.3954305,5 15.5,5.8954305 15.5,7 C15.5,8.1045695 16.3954305,9 17.5,9 Z" id="path-1"></path>
    </defs>
    <g id="Public/ic_public_more_filled" stroke="none" stroke-width="1" fill="none" fill-rule="evenodd">
        <rect id="矩形" fill-opacity="0" fill="#FFFFFF" x="0" y="0" width="24" height="24"></rect>
        <mask id="mask-2" fill="white">
            <use xlink:href="#path-1"></use>
        </mask>
        <g id="形状结合"></g>
        <g id="编组" mask="url(#mask-2)" fill="#000000" fill-opacity="0.9">
            <g id="color/#000000">
                <rect x="0" y="0" width="24" height="24"></rect>
            </g>
        </g>
    </g>
</svg>