<?xml version="1.0" encoding="UTF-8"?>
<svg width="64px" height="64px" viewBox="0 0 64 64" version="1.1" xmlns="http://www.w3.org/2000/svg" xmlns:xlink="http://www.w3.org/1999/xlink">
    <title>ic_fingerprint</title>
    <defs>
        <path d="M32,0 C49.673112,0 64,14.326888 64,32 C64,49.301168 50.2577641,63.4277323 33.047717,63.9830967 L32.5251495,63.9957612 L32,64 C14.326888,64 0,49.673112 0,32 C0,14.698832 13.7422359,0.572267678 30.952283,0.016903257 L31.4748505,0.00423877208 L32,0 Z M32,3.79739301 C16.4244796,3.79739301 3.79739301,16.4244796 3.79739301,32 C3.79739301,47.5755204 16.4244796,60.202607 32,60.202607 C47.5755204,60.202607 60.202607,47.5755204 60.202607,32 C60.202607,16.4244796 47.5755204,3.79739301 32,3.79739301 Z M21.6111405,33.6574422 C22.377145,33.6574422 23.0255183,34.1981345 23.1735449,34.9480542 L23.195343,35.0910351 L23.2028123,35.2402231 L23.2028123,37.555399 L23.199892,37.6405837 L23.188,37.748 L23.1998863,37.8562725 L23.2028123,37.9417119 C23.2028123,41.5879451 24.5628349,45.0800971 27.0330609,47.7764132 C27.6256215,48.4235792 27.5776913,49.4265287 26.925636,50.0149801 C26.6285705,50.2821441 26.2485791,50.425 25.8566594,50.425 C25.4123567,50.425 24.9854509,50.2417989 24.6795552,49.908493 C21.6744982,46.6282399 20.0194686,42.3783086 20.0194686,37.9417119 L20.0223947,37.8562725 L20.035,37.745 L20.0260577,37.6784202 L20.0194686,37.555399 L20.0194686,35.2402231 C20.0194686,34.3652902 20.7327524,33.6574422 21.6111405,33.6574422 Z M45.5245382,14.4757332 C48.5211216,18.3090431 50.1968735,22.8583367 50.3966019,27.6469788 L50.4119918,28.1431898 L50.4201056,28.2122157 L50.425,28.2931903 L50.425,37.5554376 L50.4222061,37.6391833 L50.409,37.748 L50.4222003,37.8577476 L50.425,37.9417504 C50.425,44.7742379 44.8260834,50.3304865 37.9443909,50.3304865 C33.9581999,50.3304865 30.1796529,48.4142559 27.83489,45.2034379 C27.3177793,44.4949255 27.4773012,43.5037551 28.1905418,42.990188 C28.9023371,42.4793304 29.8954718,42.636956 30.4110482,43.3430399 C32.1579498,45.735673 34.9750288,47.1649247 37.9443909,47.1649247 C42.9815544,47.1649247 47.0950406,43.170374 47.2378231,38.2084746 L47.2416563,37.9417504 C47.2416563,37.8843531 47.2453395,37.832812 47.2529344,37.7740378 L47.257,37.745 L47.2484294,37.6790898 L47.2416563,37.5554376 L47.2416563,28.6795032 C47.2416563,24.197606 45.7793949,19.9589753 43.0112164,16.4182656 C42.4707503,15.7267153 42.5973923,14.7309421 43.2930797,14.1956165 C43.987093,13.6605266 44.986265,13.7856304 45.5245382,14.4757332 Z M27.0556091,16.2907286 C33.6329782,16.2907286 39.0689593,21.37896 39.5027042,27.8053967 L39.5193576,28.1076018 L39.5304047,28.1971551 L39.5362183,28.2931517 L39.5362183,37.555399 C39.5362183,38.4303318 38.8229345,39.1381799 37.9445464,39.1381799 C37.1785419,39.1381799 36.5301686,38.5974875 36.382142,37.8475678 L36.3603439,37.7045869 L36.3528746,37.555399 L36.3528746,28.6794646 C36.3528746,23.5949132 32.18247,19.4562904 27.0556091,19.4562904 C22.1170977,19.4562904 18.0502445,23.3023219 17.7734928,28.1460193 L17.7621736,28.4111933 L17.7583437,28.6794646 L17.7583437,37.555399 L17.7554234,37.6405837 L17.743,37.749 L17.7554176,37.8562725 L17.7583437,37.9417119 C17.7583437,40.902609 18.397357,43.7559222 19.6582538,46.4255376 C20.0323985,47.2182992 19.6886067,48.1616254 18.8918984,48.5321705 C18.678286,48.6314739 18.4490824,48.6817679 18.2180699,48.6817679 C17.6061007,48.6817679 17.0416485,48.3326693 16.7767659,47.7713774 C15.3159984,44.6782716 14.575,41.3702297 14.575,37.9417119 L14.5779261,37.8562725 L14.59,37.744 L14.5815891,37.6784202 L14.575,37.555399 L14.5762439,28.2451163 L14.5890631,28.130083 L14.6054155,27.8409385 C15.042259,21.37896 20.4782401,16.2907286 27.0556091,16.2907286 Z M27.0556091,21.6937061 C30.6753771,21.6937061 33.7025066,24.4330752 34.0464135,27.9293456 C34.0591696,27.9821311 34.0693497,28.0344076 34.0771886,28.0922311 L34.0872204,28.1838835 L34.0917496,28.2931517 L34.0917496,37.555399 L34.0888293,37.6405837 L34.077,37.748 L34.0888236,37.8562725 L34.0917496,37.9417119 C34.0917496,40.046907 35.8199211,41.7619085 37.9445464,41.7619085 C40.0027772,41.7619085 41.6889453,40.1524198 41.7923208,38.1378903 L41.8002693,37.8562725 L41.812,37.744 L41.8039323,37.6784202 L41.7973432,37.555399 L41.7973432,28.6794646 C41.7973432,28.1098133 41.7603405,27.5155794 41.6872718,26.9125661 C41.5818565,26.0439704 42.2053669,25.2557177 43.0776814,25.1515219 C43.9450543,25.0479556 44.7426105,25.6669971 44.8476922,26.533371 C44.88745,26.8604565 44.9165613,27.1944389 44.9363284,27.5380198 L44.9591335,28.0609278 L44.9742993,28.1786484 L44.9806869,28.2931517 L44.9806869,37.555399 L44.9777666,37.6405837 L44.966,37.748 L44.9777608,37.8562725 L44.9806869,37.9417119 C44.9806869,41.7948432 41.8240034,44.9274703 37.9445464,44.9274703 C34.0650895,44.9274703 30.9084059,41.7948432 30.9084059,37.9417119 L30.911332,37.8562725 L30.923,37.744 L30.914995,37.6784202 L30.9084059,37.555399 L30.9084059,28.6794646 C30.9084059,26.5742694 29.1802344,24.8592679 27.0556091,24.8592679 C25.066768,24.8592679 23.4147766,26.3659764 23.2220038,28.2905253 L23.2076322,28.4843327 L23.2028123,28.6794646 L23.2028123,31.3809534 C23.2028123,32.2558863 22.4895285,32.9637343 21.6111405,32.9637343 C20.845136,32.9637343 20.1967627,32.4230419 20.0487361,31.6731223 L20.026938,31.5301414 L20.0194686,31.3809534 L20.0194686,28.2931517 C20.0194686,28.1714657 20.0352293,28.0517302 20.0550025,27.9870879 C20.4087117,24.4330752 23.4358412,21.6937061 27.0556091,21.6937061 Z M27.0554147,26.7103322 C27.8216781,26.7103322 28.4698725,27.2509518 28.6178353,28.0009449 L28.6396229,28.1439414 L28.6470865,28.2931131 L28.6470865,37.5553604 L28.6442926,37.6391061 L28.631,37.748 L28.6442869,37.8576704 L28.6470865,37.9416733 C28.6470865,38.7652323 28.7590914,39.5876778 28.9802785,40.3863695 C29.212828,41.2307929 28.7133492,42.1014408 27.8645028,42.3328557 C27.7264488,42.3700789 27.5850639,42.3888041 27.4443053,42.3888041 C26.7340808,42.3888041 26.1019419,41.9171269 25.9103455,41.225155 C25.6140776,40.151918 25.4637428,39.0475366 25.4637428,37.9416733 L25.4665338,37.8583333 L25.479,37.747 L25.4705159,37.6790126 L25.4637428,37.5553604 L25.4637428,28.2931131 C25.4637428,27.4181802 26.1770266,26.7103322 27.0554147,26.7103322 Z M36.9389757,13.8376944 C40.075182,15.8991227 42.5264376,18.9575781 43.8434406,22.4525766 C44.1526786,23.2723354 43.7333178,24.1850237 42.9102143,24.4904789 C42.7301408,24.557621 42.5419609,24.5913574 42.3530105,24.5913574 C41.6952608,24.5913574 41.0974895,24.1871785 40.8625231,23.5636529 C39.7802966,20.6914617 37.7626509,18.1742187 35.1837716,16.4784453 C34.4494314,15.9959557 34.2480267,15.0124587 34.7348752,14.2832632 C35.2201562,13.5550932 36.2062563,13.356092 36.9389757,13.8376944 Z" id="path-1"></path>
    </defs>
    <g id="ic_fingerprint" stroke="none" stroke-width="1" fill="none" fill-rule="evenodd">
        <g>
            <mask id="mask-2" fill="white">
                <use xlink:href="#path-1"></use>
            </mask>
            <g fill-rule="nonzero"></g>
            <g id="编组" mask="url(#mask-2)" fill="#000000" fill-opacity="0.9">
                <g id="Symbol/color-light/colorPrimary">
                    <rect id="color/#000000" x="0" y="0" width="64" height="64"></rect>
                </g>
            </g>
        </g>
    </g>
</svg>