<svg height="24" viewBox="0 0 24 24" width="24" xmlns="http://www.w3.org/2000/svg"><path d="m23.2497746 19.5c.4142136 0 .75.3357864.75.75 0 .3994202-.31223.7259152-.7059318.7487268l-.0440682.0012732h-22.4997746c-.41421356 0-.75-.3357864-.75-.75 0-.3994202.31222999-.7259152.7059318-.7487268l.0440682-.0012732zm-3.4997746-16.5c1.7949254 0 3.25 1.45507456 3.25 3.25v9.5c0 1.7949254-1.4550746 3.25-3.25 3.25h-15.5c-1.79492544 0-3.25-1.4550746-3.25-3.25v-9.5c0-1.79492544 1.45507456-3.25 3.25-3.25zm0 1.5h-15.5c-.96649831 0-1.75.78350169-1.75 1.75v9.5c0 .9664983.78350169 1.75 1.75 1.75h15.5c.9664983 0 1.75-.7835017 1.75-1.75v-9.5c0-.96649831-.7835017-1.75-1.75-1.75z"/></svg>