<?xml version="1.0" encoding="UTF-8"?>
<svg width="24" height="24" viewBox="0 0 24 24" version="1.1" xmlns="http://www.w3.org/2000/svg" xmlns:xlink="http://www.w3.org/1999/xlink">
    <title>ohos_ic_public_restore</title>
    <defs>
        <path d="M2.75,13.2916667 C1.23121694,13.2916667 2.39899859e-24,12.0604497 2.39899859e-24,10.5416667 L2.39899859e-24,2.75 C2.39899859e-24,1.23121694 1.23121694,0 2.75,0 L15.125,0 C16.6437831,0 17.875,1.23121694 17.875,2.75 L17.875,7.104 C17.875,7.44934464 17.6206163,7.73510812 17.2890937,7.7842124 L17.1875,7.79166667 C16.8078042,7.79166667 16.5,7.48386243 16.5,7.10416667 C16.5,7.09976734 16.5000413,7.09537766 16.5001236,7.09099801 L16.5,2.75 C16.5,1.99060847 15.8843915,1.375 15.125,1.375 L2.75,1.375 C1.99060847,1.375 1.375,1.99060847 1.375,2.75 L1.375,10.5416667 C1.375,11.3010582 1.99060847,11.9166667 2.75,11.9166667 L7.79166667,11.9166667 C8.17136243,11.9166667 8.47916667,12.2244709 8.47916667,12.6041667 C8.47916667,12.9838624 8.17136243,13.2916667 7.79166667,13.29166667 L2.75,13.2916667 Z" id="path-1"></path>
        <path d="M5.59874207,1.78966846 L7.99684888,4.18777528 C8.26533433,4.45626073 8.26533433,4.89156165 7.99684888,5.1600471 L5.59874207,7.55815391 C5.33025662,7.82663937 4.8949557,7.82663937 4.62647024,7.55815391 C4.35798479,7.28966846 4.35798479,6.85436754 4.62647024,6.58588209 L5.81460941,5.39630438 L1.83292873,5.36139824 C1.45324012,5.35906773 1.14733093,5.04938005 1.14960941,4.66969144 C1.15199194,4.29000282 1.46167962,3.98409363 1.84136824,3.98641091 L5.88660941,4.02230438 L4.62647024,2.76194029 C4.35798479,2.49345484 4.35798479,2.05815391 4.62647024,1.78966846 C4.8949557,1.52118301 5.33025662,1.52118301 5.59874207,1.78966846 Z" id="path-2"></path>
        <path d="M17.6458333,9.16666667 L11.6875,9.16666667 C10.8015432,9.16666667 10.0833333,9.88487655 10.0833333,10.7708333 L10.0833333,14.4375 C10.0833333,15.3234568 10.8015432,16.0416667 11.6875,16.0416667 L17.6458333,16.0416667 C18.5317901,16.0416667 19.25,15.3234568 19.25,14.4375 L19.25,10.7708333 C19.25,9.88487655 18.5317901,9.16666667 17.6458333,9.16666667 Z" id="path-3"></path>
    </defs>
    <g id="ohos_ic_public_restore" stroke="none" stroke-width="1" fill="none" fill-rule="evenodd">
        <g id="group-1" transform="translate(2.100000, 4.080000)" fill="#FFFFFF" fill-rule="nonzero" stroke="#FFFFFF" stroke-width="0.5">
            <use xlink:href="#path-1" stroke-linecap="round"/>
            <g id="group-2" transform="translate(10.774631, 10.75498) rotate(180.000000)">
                <use xlink:href="#path-2" transform="translate(4.673911, 4.673911) rotate(45.000000) translate(-4.673911, -4.673911)"/>
            </g>
            <use xlink:href="#path-3"/>
        </g>
    </g>
</svg>