<?xml version="1.0" encoding="UTF-8"?>
<svg width="24px" height="24px" viewBox="0 0 24 24" version="1.1" xmlns="http://www.w3.org/2000/svg" xmlns:xlink="http://www.w3.org/1999/xlink">
    <title>ic_public_drawer_close</title>
    <defs>
        <path d="M21.25,17.9482759 C21.6642136,17.9482759 22,18.2840623 22,18.6982759 L22,18.75 C22,19.1642136 21.6642136,19.5 21.25,19.5 L2.75,19.5 C2.33578644,19.5 2,19.1642136 2,18.75 L2,18.6982759 C2,18.2840623 2.33578644,17.9482759 2.75,17.9482759 L21.25,17.9482759 Z M20.8098771,9.29664948 C21.3621618,9.29664948 21.8098771,9.74436473 21.8098771,10.2966495 L21.8098771,13.231826 C21.8098771,13.4970747 21.7044947,13.7514567 21.5169182,13.9389984 C21.1263576,14.3294865 20.4931927,14.3294277 20.1027046,13.9388671 L18.6355201,12.4714102 C18.2452147,12.0807696 18.2452147,11.4477059 18.6355201,11.0570653 L20.1027046,9.58960835 C20.2902463,9.40203181 20.5446284,9.29664948 20.8098771,9.29664948 Z M14.25,11.2241379 C14.6642136,11.2241379 15,11.5599244 15,11.9741379 L15,12.0258621 C15,12.4400756 14.6642136,12.7758621 14.25,12.7758621 L2.75,12.7758621 C2.33578644,12.7758621 2,12.4400756 2,12.0258621 L2,11.9741379 C2,11.5599244 2.33578644,11.2241379 2.75,11.2241379 L14.25,11.2241379 Z M21.25,4.5 C21.6642136,4.5 22,4.83578644 22,5.25 L22,5.30172414 C22,5.7159377 21.6642136,6.05172414 21.25,6.05172414 L2.75,6.05172414 C2.33578644,6.05172414 2,5.7159377 2,5.30172414 L2,5.25 C2,4.83578644 2.33578644,4.5 2.75,4.5 L21.25,4.5 Z" id="path-1"></path>
    </defs>
    <g id="ic_public_drawer_close" stroke="none" stroke-width="1" fill="none" fill-rule="evenodd">
        <mask id="mask-2" fill="white">
            <use xlink:href="#path-1"></use>
        </mask>
        <use id="形状结合" fill="#000000" fill-rule="nonzero" xlink:href="#path-1"></use>
    </g>
</svg>