<?xml version="1.0" encoding="UTF-8"?>
<svg width="18px" height="18px" viewBox="0 0 18 18" version="1.1" xmlns="http://www.w3.org/2000/svg" xmlns:xlink="http://www.w3.org/1999/xlink">
    <!-- Generator: Sketch 63.1 (92452) - https://sketch.com -->
    <title>ic_public_input_cancel</title>
    <desc>Created with Sketch.</desc>
    <defs>
        <path d="M14.6568542,3.34314575 C14.9497475,3.63603897 14.9497475,4.1109127 14.6568542,4.40380592 L4.40380592,14.6568542 C4.1109127,14.9497475 3.63603897,14.9497475 3.34314575,14.6568542 C3.05025253,14.363961 3.05025253,13.8890873 3.34314575,13.5961941 L7.94004693,8.99929289 L3.34314574,4.40380592 C3.05025253,4.1109127 3.05025253,3.63603896 3.34314574,3.34314574 C3.63603896,3.05025253 4.1109127,3.05025253 4.40380592,3.34314574 L9.0007071,7.93863272 L13.5961941,3.34314575 C13.8890873,3.05025253 14.363961,3.05025253 14.6568542,3.34314575 Z M14.6568542,13.5961941 C14.9497475,13.8890873 14.9497475,14.363961 14.6568542,14.6568542 C14.363961,14.9497475 13.8890873,14.9497475 13.5961941,14.6568542 L9.70710678,10.7677669 L10.7677669,9.70710678 L14.6568542,13.5961941 Z" id="path-1"></path>
    </defs>
    <g id="ic_public_input_cancel" stroke="none" stroke-width="1" fill="none" fill-rule="evenodd">
        <mask id="mask-2" fill="white">
            <use xlink:href="#path-1"></use>
        </mask>
        <use id="形状" fill="#000000" xlink:href="#path-1"></use>
    </g>
</svg>