<?xml version="1.0" encoding="UTF-8"?>
<svg width="24px" height="24px" viewBox="0 0 24 24" version="1.1" xmlns="http://www.w3.org/2000/svg" xmlns:xlink="http://www.w3.org/1999/xlink">
    <title>邮箱</title>
    <g id="邮箱" stroke="none" stroke-width="1" fill="none" fill-rule="evenodd">
        <g id="ic_public_email" transform="translate(1.000000, 3.000000)" fill="#000000" fill-rule="nonzero">
            <path d="M0.15822247,2.88238866 L1.5,4.224 L1.5,14 C1.5,15.35731 2.5816677,16.4619829 3.93002379,16.4990396 L4,16.5 L18,16.5 C19.35731,16.5 20.4619829,15.4183323 20.4990396,14.0699762 L20.5,14 L20.5,4.224 L21.8420657,2.88338131 C21.944885,3.23777439 22,3.6124508 22,4 L22,14 C22,16.209139 20.209139,18 18,18 L4,18 C1.790861,18 0,16.209139 0,14 L0,4 C0,3.61208894 0.05521793,3.23707472 0.15822247,2.88238866 Z M13.6516504,9.6590097 C12.2376832,11.072977 9.9754833,11.1217345 8.50301724,9.8052822 L8.34834957,9.6590097 L0.59252486,1.90390867 C1.29677166,0.76149679 2.55945728,0 4,0 L18,0 C19.4405427,0 20.7032283,0.76149679 21.4074751,1.90390867 L13.6516504,9.6590097 Z M18.0699762,1.50096045 L4,1.5 C3.51717065,1.5 3.06631009,1.63687468 2.68410349,1.87393886 L9.4090097,8.5983496 C10.2458475,9.4351873 11.5778704,9.4750368 12.4618686,8.7178978 L12.5909903,8.5983496 L19.3152865,1.87356061 C18.9517386,1.64821401 18.5261178,1.5134965 18.0699762,1.50096045 Z" id="path-1"></path>
        </g>
    </g>
</svg>