<?xml version="1.0" encoding="UTF-8"?>
<svg width="24px" height="24px" viewBox="0 0 24 24" version="1.1" xmlns="http://www.w3.org/2000/svg" xmlns:xlink="http://www.w3.org/1999/xlink">
    <title>ic_wl</title>
    <g id="ic_wl" stroke="none" stroke-width="1" fill="none" fill-rule="evenodd">
        <path d="M14.1361356,3.25 C15.5946825,3.25 16.7675662,4.45950403 16.7675661,5.94054089 L16.7675028,6.68 L18.9488682,6.68021028 C19.9500912,6.68023691 20.8554971,7.25949991 21.2989574,8.16003593 L21.3766033,8.33258837 C22.1879433,10.3165393 22.670751,11.4968118 22.8186854,11.8583248 L22.8655081,11.963725 C22.9184898,12.0956124 22.9561025,12.2408223 22.9792159,12.4162059 L22.990295,12.5921766 L22.990295,16.7795451 C22.990295,17.7244474 22.2386636,18.4996318 21.2996547,18.4996318 L19.9585702,18.4997053 C19.9858178,18.3371939 20,18.1702532 20,18 C20,17.649028 19.9397302,17.3121327 19.8289758,16.9990993 L21.2996547,16.9996318 C21.3997026,16.9996318 21.490295,16.9062007 21.490295,16.7795451 L21.4923898,12.6481926 L21.4883624,12.574827 C21.4873551,12.567533 21.4859735,12.5604096 21.4835176,12.5519481 L21.45029,12.4730548 L19.9882152,8.90037204 C19.8085359,8.4610067 19.3982083,8.18022223 18.9488192,8.18021028 L15.2664687,8.18006757 L15.2675662,5.94017342 C15.2675662,5.27778643 14.7557596,4.75 14.1361356,4.75 L3.56993346,4.75 C2.95030943,4.75 2.4385028,5.27778646 2.4385028,5.94017342 L2.4385028,15.7248448 C2.4385028,16.3872318 2.95030939,16.9150182 3.56994611,16.9150182 L4.20232245,16.9147167 C4.07167046,17.2512789 4,17.6172697 4,18 C4,18.1411856 4.00975293,18.2800932 4.02862183,18.416086 L3.56993346,18.4150182 C2.11138658,18.4150182 0.938502799,17.2055142 0.938502799,15.7248448 L0.938502799,5.94017342 C0.938502799,4.45950405 2.1113866,3.25 3.56993346,3.25 Z M14,18 C14,18.1411856 14.0097529,18.2800932 14.0286218,18.416086 L9.97137817,18.416086 C9.99024707,18.2800932 10,18.1411856 10,18 C10,17.6172697 9.92832954,17.2512789 9.79767755,16.9147167 L14.2023224,16.9147167 C14.0716705,17.2512789 14,17.6172697 14,18 Z" id="形状结合" fill="#000000" fill-rule="nonzero"></path>
        <circle id="椭圆形" stroke="#000000" stroke-width="1.5" cx="7" cy="18" r="2.25"></circle>
        <circle id="椭圆形备份" stroke="#000000" stroke-width="1.5" cx="17" cy="18" r="2.25"></circle>
        <path d="M16.0168362,7.43009665 L16.0168362,11.5523715 C16.0168362,12.1046563 16.4645515,12.5523715 17.0168362,12.5523715 L22.240295,12.5523715 L22.240295,12.5523715" id="路径-2" stroke="#000000" stroke-width="1.5" fill-rule="nonzero"></path>
    </g>
</svg>