<svg height="24" viewBox="0 0 24 24" width="24" xmlns="http://www.w3.org/2000/svg"><path d="m14.439039.75c1.037326 0 1.9096527.7693077 2.0451224 1.79106054l.0075022.06418359c.1309446 1.29297754.5524838 2.69720583 1.2693897 4.21132583.0768333.08477947.1514234.17138489.2241001.25962536.0113785-.00847942.0236427-.01660537.0363694-.02424478.2354734-.14191991.5443383-.06468645.6859913.17101894l.5174716.8606936c.1416531.23570538.0649359.54435571-.1710189.68599136l-.0057773.00316387c.4506055.98251883.7018105 2.07551419.7018105 3.22718169 0 1.1844196-.2656962 2.3067826-.7407373 3.3107377.0154358.006759.0306407.0148457.0455526.0238074.2239367.1348073.3043709.4201046.1904046.6503853l-.0196176.0358729-.5181325.8619929c-.1416531.2357054-.4505354.3126894-.6862408.1710363-.0325378-.0195874-.062046-.0423519-.0883685-.0676631-.0559204.0669227-.1132399.132776-.171639.1976379-.6895835 1.4555931-1.1057702 2.8097114-1.2531609 4.0610471l-.016397.1496669c-.1066966 1.053548-.9936876 1.8552441-2.0526246 1.8552441h-4.90561185c-1.07520028 0-1.97013722-.8257531-2.05646098-1.8974826-.11877657-1.4746994-.51237013-2.841799-1.18196191-4.1074694-1.2699049-1.379887-2.04500426-3.2218331-2.04500426-5.2448134 0-2.02285763.77500538-3.86470305 2.04429054-5.24481066.67020202-1.26554835 1.06388345-2.63281349 1.18267563-4.10770672.08459728-1.05029488.94578667-1.8643541 1.9921703-1.89649635l.06429068-.00098627zm1.0341824 18.1796863-.0187684.0097445c-1.0400888.5187596-2.213193.8105692-3.454453.8105692-1.2295687 0-2.39225941-.2863384-3.42502813-.7959712.20180843.7340996.33399778 1.4937171.39715228 2.2778272.02356161.2925229.26783164.5179094.561303.5179094h4.90561355c.2890337 0 .5311341-.2188195.5602565-.5063815l.0178578-.163739c.0813127-.6960927.2335006-1.4126984.4560664-2.1499586zm-3.4732214-13.1796863c-3.45177969 0-6.25 2.79822031-6.25 6.25 0 3.4517797 2.79822031 6.25 6.25 6.25 3.4517797 0 6.25-2.7982203 6.25-6.25 0-3.45177969-2.7982203-6.25-6.25-6.25zm2.4390407-3.5h-4.90561355c-.29347136 0-.53774139.22538654-.561303.51790946-.0631595.78417207-.19536477 1.54384779-.39649501 2.27839605 1.03211145-.50996707 2.19480216-.79630551 3.42437086-.79630551 1.2490422 0 2.4290713.29548013 3.4740001.82035319-.2040106-.67343474-.3486114-1.32967434-.4341072-1.96878691l-.0227379-.18144575-.0178578-.16373905c-.0291224-.28756201-.2712228-.50638148-.5602565-.50638148z" fill-rule="evenodd"/></svg>