<?xml version="1.0" encoding="UTF-8"?>
<svg width="24px" height="24px" viewBox="0 0 24 24" version="1.1" xmlns="http://www.w3.org/2000/svg" xmlns:xlink="http://www.w3.org/1999/xlink">
    <title>地址</title>
    <g id="地址" stroke="none" stroke-width="1" fill="none" fill-rule="evenodd">
        <g id="ic_public_gps" transform="translate(3.000000, 1.000000)" fill="#000000" fill-rule="nonzero">
            <path d="M9.25,0 C14.3554507,0 18.5,4.06620271 18.5,9.08935236 C18.5,11.0455895 17.9074499,12.9570691 16.8076286,14.8889617 C16.1229064,16.0917113 15.3001448,17.2241067 14.2108635,18.5171034 L14.2108635,18.5171034 L13.944253,18.8306244 L13.6670134,19.151022 C13.5727849,19.2590462 13.476719,19.3683346 13.3787501,19.4790057 C13.1602985,19.7257807 12.9150022,19.985089 12.6427717,20.2571016 L12.6427717,20.2571016 L12.4335472,20.4634958 C12.2906956,20.6026835 12.1411049,20.7450581 11.9847638,20.8906407 L11.9847638,20.8906407 L11.745188,21.1114235 L11.745188,21.1114235 L11.6216004,21.2236246 L11.3668206,21.4516558 C11.2802033,21.528474 11.191895,21.606101 11.1018942,21.6845394 L11.1018942,21.6845394 L10.826813,21.9222913 C9.9541229,22.6704767 8.670977,22.6937182 7.759368,21.9711442 L7.759368,21.9711442 L7.6882537,21.9118686 L7.3573598,21.6232898 L7.15321903,21.4435786 L6.86389638,21.1862518 L6.59473731,20.9434931 L6.34562633,20.7151677 L6.11644795,20.5011406 L5.974679,20.3663329 L5.84168343,20.2377801 L5.71742704,20.1154423 L5.60187559,19.9992795 L5.49499487,19.8892518 C5.47790207,19.8714229 5.46116914,19.8538479 5.44479534,19.8365261 L5.44479534,19.8365261 L5.35085655,19.735626 L5.11894106,19.4768459 L4.86273271,19.1862956 C4.82055128,19.1380575 4.7786302,19.0899116 4.73697003,19.041856 L4.73697003,19.041856 L4.49014438,18.7545911 L4.24960722,18.4694026 L4.24960722,18.4694026 L4.13170517,18.3275587 L3.90065082,18.0453145 L3.67595171,17.7649195 C1.27623205,14.7369945 0,12.0185866 0,9.08935236 C0,4.10298089 3.95791088,0.08109938 8.9834486,0.001140931 L8.9834486,0.001140931 L9.1299375,0 L9.25,0 Z M9.25,1.49997629 L9.1359001,1.49997629 L9.001346,1.50102226 C4.80083692,1.56787403 1.5,4.92206147 1.5,9.08935235 C1.5,12.0060653 3.0491974,14.8316636 5.98645395,18.1926521 L5.98645395,18.1926521 L6.23797346,18.4779677 L6.46242661,18.7284787 C6.47500367,18.7422092 6.48793618,18.756205 6.50122371,18.7704656 L6.50122371,18.7704656 L6.58520518,18.8592024 L6.67768459,18.9542687 L6.77863979,19.0556388 L6.94591626,19.2194575 L7.13213873,19.3973156 L7.3372325,19.5891268 L7.4844088,19.7247099 L7.7207886,19.9395839 L7.9758404,20.1681803 L8.2494895,20.4104127 L8.6599685,20.7693173 L8.7039143,20.8060034 C9.0403355,21.0725753 9.5235456,21.063823 9.8505016,20.783513 L9.8505016,20.783513 L10.1130218,20.55664 L10.3654007,20.3348556 C10.4478358,20.2617773 10.5285793,20.1895498 10.6076298,20.1181757 L10.6076298,20.1181757 L10.8397008,19.9066164 L11.0616053,19.7001938 L11.2733349,19.4989239 L11.4748812,19.3028227 C11.7695589,19.0125554 12.0298395,18.7397868 12.2555957,18.4847602 C12.2981588,18.4366786 12.3404304,18.3887533 12.3824106,18.3409815 L12.3824106,18.3409815 L12.6307972,18.0561698 C12.6716128,18.0090005 12.7121375,17.9619789 12.7523714,17.9151022 L12.7523714,17.9151022 L12.9902879,17.6355572 L13.2212367,17.3593502 C13.3728823,17.1762943 13.5198895,16.9953715 13.6622716,16.8163975 L13.6622716,16.8163975 L13.8723776,16.5493749 C15.973223,13.8490353 17,11.5804449 17,9.08935235 C17,4.90110493 13.5333634,1.49997629 9.25,1.49997629 L9.25,1.49997629 Z M9.25,6.85955634 C10.4926407,6.85955634 11.5,7.86691565 11.5,9.10955634 C11.5,10.352197 10.4926407,11.3595563 9.25,11.3595563 C8.0073593,11.3595563 7,10.352197 7,9.10955634 C7,7.86691565 8.0073593,6.85955634 9.25,6.85955634 Z" id="path-1"></path>
        </g>
    </g>
</svg>