<?xml version="1.0" encoding="UTF-8"?>
<svg xmlns="http://www.w3.org/2000/svg" xmlns:xlink="http://www.w3.org/1999/xlink" width="24" height="24" viewBox="0 0 24 24" version="1.1">
    <title>ohos_ic_public_voice_off</title>
    <defs>
        <path d="M4.97739819,10.5 C5.39161175,10.5 5.72739819,10.8357864 5.72739819,11.25 C5.72739819,14.5637085 8.41368969,17.25 11.7273982,17.25 C13.5635881,17.25 15.2071307,16.425179 16.3077264,15.1258366 L17.3716859,16.1889824 C16.1516948,17.5820603 14.4242557,18.519545 12.4778852,18.7129202 L12.4773982,21.25 C12.4773982,21.6642136 12.1416117,22 11.7273982,22 C11.327978,22 11.001483,21.68777 10.9786714,21.2940682 L10.9773982,21.25 L10.9779174,18.7130201 C7.18767649,18.3369673 4.22739819,15.1391887 4.22739819,11.25 C4.22739819,10.8357864 4.56318462,10.5 4.97739819,10.5 Z M18.4773982,10.5 C18.8916117,10.5 19.2273982,10.8357864 19.2273982,11.25 C19.2273982,12.7791299 18.76978,14.2013774 17.9840228,15.3872632 L16.8960882,14.2989346 C17.4242817,13.4054461 17.7273982,12.3631214 17.7273982,11.25 C17.7273982,10.8357864 18.0631846,10.5 18.4773982,10.5 Z M7.72739819,6.545 L9.22739819,8.045 L9.22739819,11.25 C9.22739819,12.6307119 10.3466863,13.75 11.7273982,13.75 C12.5980077,13.75 13.3646765,13.3049769 13.8123346,12.6300005 L14.8862294,13.7042332 C14.1543473,14.6448802 13.0115394,15.25 11.7273982,15.25 C9.51825919,15.25 7.72739819,13.459139 7.72739819,11.25 L7.72739819,6.545 Z M11.7273982,2 C13.9365372,2 15.7273982,3.790861 15.7273982,6 L15.7273982,11.25 C15.7273982,11.8048967 15.6144082,12.3334032 15.4101805,12.8137671 L14.2022374,11.6060456 C14.2188194,11.4897511 14.2273982,11.3708774 14.2273982,11.25 L14.2273982,6 C14.2273982,4.61928813 13.1081101,3.5 11.7273982,3.5 C10.3466863,3.5 9.22739819,4.61928813 9.22739819,6 L9.22739819,6.632 L7.80549936,5.20948486 C8.17244185,3.3789691 9.78888228,2 11.7273982,2 Z" id="path-1"/>
    </defs>
    <g id="ohos_ic_public_voice_off" stroke="none" stroke-width="1" fill="none" fill-rule="evenodd">
        <mask id="mask-2" fill="#FFFFFF">
            <use xlink:href="#path-1"/>
        </mask>
        <use id="形状结合" fill="#000000" fill-rule="nonzero" xlink:href="#path-1"/>
        <path d="M3.24127635,3 C3.52245384,2.71882251 3.97134457,2.70757541 4.26593912,2.9662587 L4.30193652,3 L20.5682465,19.3847763 C20.8611397,19.6776695 20.8611397,20.1525433 20.5682465,20.4454365 C20.287069,20.726614 19.8381783,20.7378611 19.5435838,20.4791778 L19.5075864,20.4454365 L3.24127635,4.06066017 C2.94838313,3.76776695 2.94838313,3.29289322 3.24127635,3 Z" id="path-2" fill="#000000" fill-rule="nonzero" />
    </g>
</svg>