<?xml version="1.0" encoding="UTF-8"?>
<svg width="24px" height="24px" viewBox="0 0 24 24" version="1.1" xmlns="http://www.w3.org/2000/svg" xmlns:xlink="http://www.w3.org/1999/xlink">
    <title>ic_hb</title>
    <g id="ic_hb" stroke="none" stroke-width="1" fill="none" fill-rule="evenodd">
        <g id="59feca00-814a-4f42-b113-f3bab76bae85" transform="translate(1.500000, 1.500000)" fill="#000000" fill-rule="nonzero">
            <g id="编组">
                <path d="M10.8237949,0 C12.8146338,0 14.7265528,0.534893745 16.3939087,1.53138166 L16.5322854,1.61548926 L16.556993,1.63290929 C16.7602698,1.79548478 16.8826538,2.03935887 16.8826538,2.3027474 C16.8826538,2.7694928 16.5021015,3.14704664 16.0334231,3.14704664 C15.8134243,3.14704664 15.6067053,3.06283314 15.4506451,2.91603067 L15.4415,2.907 L15.336057,2.8464734 C14.0505387,2.1217065 12.609094,1.71884844 11.1348761,1.67129791 L10.9768043,1.66756433 L10.8237949,1.66654852 C5.770555,1.66654852 1.67533335,5.73369969 1.67533335,10.7499866 C1.67533335,15.7662736 5.770555,19.8334248 10.8237949,19.8334248 C14.578184,19.8334248 17.9062142,17.5673238 19.2977275,14.1797159 L19.3365,14.083 L19.3447002,14.0564336 C19.4477949,13.7439536 19.7249261,13.5184109 20.0535782,13.4807288 L20.1032472,13.4764981 L20.1512949,13.4751579 C20.6199404,13.4751579 21,13.8526804 21,14.3194571 C21,14.4795559 20.9549698,14.6333376 20.8720739,14.7658373 L20.85875,14.78525 L20.817954,14.8838263 C19.1606528,18.8145612 15.3453299,21.401845 11.084668,21.4972677 L10.9554225,21.4993954 L10.8232692,21.4999867 C4.84649569,21.4999867 0,16.6873235 0,10.7499866 C0,4.81239122 4.84623039,0 10.8237949,0 Z" id="路径"></path>
                <path d="M7.95465763,6.84831718 C8.09526014,6.75602302 8.23832315,6.7506419 8.39008799,6.8202885 L13.1651769,9.02889057 C13.259162,9.07258773 13.3536764,9.1165584 13.4500378,9.16141359 C13.6196921,9.24015947 13.7386908,9.23176302 13.8984333,9.12995636 L15.0567406,8.3950428 C15.6033944,8.04995158 16.2317459,7.6554144 17.0987174,7.11211659 C17.6593782,6.76016002 18.3727582,6.8708132 18.7841388,7.37332123 C19.1907324,7.8681201 19.1585029,8.5854213 18.7086615,9.04312612 C18.6328343,9.11984424 18.5438321,9.18828201 18.4403006,9.25340148 L17.3003269,9.97804257 L12.6090527,13.0012216 C9.94718717,14.7068447 8.98831573,15.2729272 8.72028468,15.2729272 C8.40772004,15.2729272 7.88253994,14.9616814 6.78708391,14.2071445 L5.99692982,13.658973 L5.73313989,13.4776562 L5.4249317,13.2703488 L5.35206492,13.2201093 L5.06883251,13.0272567 L5.8625718,12.4357463 L6.01061005,12.3279546 C6.03404502,12.3110686 6.05686824,12.2947193 6.07909066,12.2789024 C6.19039779,12.1969297 6.31896991,12.205854 6.43770029,12.2492586 L6.51106891,12.2770184 C6.64680789,12.3300745 6.79301393,12.3966262 7.01078506,12.5030338 L7.58971663,12.7900994 C7.82163404,12.9038128 7.94786035,12.9606657 8.07946253,13.0109422 C8.20478558,13.0588601 8.30032052,13.049558 8.41279422,12.9780238 L11.0835769,11.2953407 C11.30093,11.158303 11.3187407,10.978039 11.133075,10.8192828 L11.1036985,10.7956387 L6.89334736,7.53880037 L7.26925341,7.28269044 L7.86320797,6.90787958 L7.95465763,6.84831718 Z" id="路径"></path>
            </g>
        </g>
    </g>
</svg>