<?xml version="1.0" encoding="UTF-8"?>
<svg width="24px" height="24px" viewBox="0 0 24 24" version="1.1" xmlns="http://www.w3.org/2000/svg" xmlns:xlink="http://www.w3.org/1999/xlink">
    <title>svgic_public_albums</title>
    <defs>
        <path d="M14.9950416,4.45 C16.5150952,4.45 17.0869171,4.60560581 17.6428751,4.8982056 L17.6791204,4.91748223 C18.2198723,5.20799405 18.6497988,5.62784156 18.9518284,6.15987565 L18.9961716,6.24052002 C19.2998287,6.81089039 19.4615385,7.37664131 19.4615385,8.9367991 L19.4615385,14.637 L18.1544796,13.323 L18.1549774,8.9367991 C18.1549774,7.71251119 18.0740563,7.29156278 17.8440287,6.85949352 C17.6621428,6.51785052 17.4030448,6.25757473 17.0629476,6.07486205 C16.6543392,5.85534255 16.2557219,5.77100335 15.1719574,5.76311823 L15.084961,5.76265349 L6.41730149,5.76265349 L6.24180395,5.76395075 C5.2244489,5.77577961 4.8366045,5.86142342 4.43931482,6.07486205 C4.09921771,6.25757473 3.84011964,6.51785052 3.65823371,6.85949352 C3.42820613,7.29156278 3.34728507,7.71251119 3.34728507,8.9367991 L3.34743786,17.553529 L3.34872925,17.7298242 C3.35106138,17.9322292 3.35627577,18.1098297 3.36478986,18.267612 L5.72625139,15.8951828 C6.25876601,15.3687763 6.59840207,15.1445121 7.04734673,15.00782 C7.47900371,14.8763916 7.92597367,14.8763916 8.36664476,15.0106362 L8.36664476,15.0106362 L8.4395407,15.034077 C8.84888127,15.1723987 9.18196157,15.4035893 9.68768607,15.904084 L9.68768607,15.904084 L9.78703452,16.0038351 C10.0424695,16.2600566 10.4563538,16.2600102 10.7115077,16.0039563 L10.7115077,16.0039563 L13.1751971,13.5296841 C13.7077118,13.0032775 14.0473478,12.7790133 14.4962925,12.6423213 C14.9279495,12.5108929 15.3749194,12.5108929 15.8065764,12.6423213 C16.2584146,12.7798943 16.5980679,13.0055923 17.1367384,13.5386923 L17.1367384,13.5386923 L19.4615385,15.8738295 L19.4615385,17.6482257 C19.4615385,18.90302 19.344144,19.5137018 19.0062187,20.1484392 C18.6986116,20.7262288 18.2433047,21.1836053 17.6681295,21.4926106 C17.0723708,21.8126741 16.4979002,21.9357991 15.3872065,21.9488255 L15.3872065,21.9488255 L15.1792292,21.95 L15.130034,21.9495758 C15.0858823,21.95 15.0408934,21.95 14.9950416,21.95 L6.50722082,21.95 L6.31425383,21.9491191 C5.06989279,21.949217 4.4639071,21.8309485 3.83413288,21.4926106 C3.25895771,21.1836053 2.8036508,20.7262288 2.49604375,20.1484392 C2.44453035,20.0516797 2.39995085,19.959938 2.35970198,19.8663183 L2.35970198,19.8663183 L2.1886821,19.4685225 L2.21765515,19.4383927 C2.1012079,18.9995815 2.04072398,18.417359 2.04072398,17.4632009 L2.04072398,8.9367991 C2.04072398,7.40983615 2.19562569,6.83541506 2.4869015,6.27692999 L2.50609091,6.24052002 C2.79528819,5.69731014 3.21323594,5.2654294 3.74286264,4.96202688 L3.8231421,4.91748223 C4.39093161,4.61244482 4.95412257,4.45 6.50722082,4.45 L14.9950416,4.45 Z M15.4275883,13.8983928 C15.2430395,13.8422024 15.0598294,13.8422024 14.8752806,13.8983928 C14.6418852,13.9694556 14.465121,14.0895434 14.0342182,14.5224048 L14.0342182,14.5224048 L11.6351415,16.9322795 C10.8697076,17.7004132 9.62943595,17.7005524 8.86360726,16.9323655 L8.86360726,16.9323655 L8.76739367,16.8357377 C8.39442009,16.4666389 8.21743155,16.3437914 8.03274763,16.2812984 L8.03274763,16.2812984 L7.97864256,16.2638915 C7.79409369,16.2077011 7.61088368,16.2077011 7.42633481,16.2638915 C7.19293945,16.3349543 7.01617522,16.4550421 6.58528269,16.8878933 L6.58528269,16.8878933 L3.76601023,19.7201257 C3.93778426,19.9749226 4.16153131,20.1759024 4.43931482,20.3251379 C4.8479233,20.5446575 5.24654063,20.6289967 6.33030504,20.6368818 L6.50722082,20.6375 L14.9950416,20.6375 C16.2137898,20.6375 16.6328334,20.5562111 17.0629476,20.3251379 C17.174061,20.2654437 17.2765286,20.1974704 17.3704824,20.1210854 C17.3791201,20.1159629 17.3868152,20.1095595 17.394455,20.1030997 L17.3704824,20.1210854 C17.4164676,20.0836991 17.4604134,20.0442977 17.5023351,20.0028656 L17.394455,20.1030997 C17.4396004,20.0649268 17.4828105,20.0247801 17.5240691,19.982676 L17.5023351,20.0028656 C17.5469857,19.9587365 17.5893402,19.9123038 17.6294171,19.8635487 L17.5240691,19.982676 C17.5653806,19.9405179 17.6047356,19.8963973 17.6421182,19.8503303 L17.6294171,19.8635487 C17.7101436,19.765342 17.7816299,19.6577125 17.8440287,19.5405065 C18.062555,19.1300407 18.1465126,18.7296115 18.154362,17.6409208 L18.1549774,17.4632009 L18.1547596,16.417375 L16.2163395,14.4702389 C15.8697491,14.1272493 15.6981759,13.9991545 15.5098729,13.9265677 L15.5098729,13.9265677 L15.4554511,13.9072013 L15.4275883,13.8983928 Z M7.48472851,9.04375 C8.32658789,9.04375 9.00904977,9.72931398 9.00904977,10.575 C9.00904977,11.420686 8.32658789,12.10625 7.48472851,12.10625 C6.64286912,12.10625 5.96040724,11.420686 5.96040724,10.575 C5.96040724,9.72931398 6.64286912,9.04375 7.48472851,9.04375 Z" id="path-1"></path>
    </defs>
    <g id="ic_public_albums" stroke="none" stroke-width="1" fill="none" fill-rule="evenodd">
        <path d="M15.5197426,2 C17.7384545,2 18.543013,2.23206403 19.3541408,2.66783176 C20.1652687,3.10359949 20.8018466,3.74307093 21.2356426,4.55788574 C21.6694385,5.37270056 21.9004524,6.18091615 21.9004524,8.409713 L21.9004524,14.3722296 C21.9004524,16.1552671 21.7156412,16.8018396 21.3686045,17.4536914 C21.1241243,17.9129076 21.0250869,18.1029341 20.627481,18.4149837 C20.6313237,18.2699393 20.6331938,18.1170335 20.6331938,17.9545997 L20.6331938,8.1462553 C20.6331938,6.77606565 20.5001242,6.08384294 20.1166559,5.36356009 C19.7636002,4.70040272 19.2395533,4.1739738 18.5793966,3.81931336 C17.9101745,3.45978264 17.2652853,3.31936869 16.0733004,3.30224475 L6.04533006,3.3004275 C5.88334477,3.3004275 5.73087798,3.30231279 5.58675248,3.30628077 C5.89809159,2.90639544 6.05979927,2.77972241 6.5166872,2.53426541 C7.1655895,2.18565122 7.80923631,2 9.58420575,2 L15.5197426,2 Z" id="形状结合" fill="#000000" fill-rule="nonzero"></path>
        <mask id="mask-2" fill="white">
            <use xlink:href="#path-1"></use>
        </mask>
        <use id="path-1" fill="#000000" xlink:href="#path-1"></use>
    </g>
</svg>